<?xml version="1.0" encoding="utf-8" standalone="no"?>
<!DOCTYPE svg PUBLIC "-//W3C//DTD SVG 1.1//EN"
  "http://www.w3.org/Graphics/SVG/1.1/DTD/svg11.dtd">
<!-- Created with matplotlib (http://matplotlib.org/) -->
<svg height="288pt" version="1.1" viewBox="0 0 324 288" width="324pt" xmlns="http://www.w3.org/2000/svg" xmlns:xlink="http://www.w3.org/1999/xlink">
 <defs>
  <style type="text/css">
*{stroke-linecap:butt;stroke-linejoin:round;}
  </style>
 </defs>
 <g id="figure_1">
  <g id="axes_1">
   <g id="patch_1">
    <path d="
M48.6 244.8
L291.6 244.8
L291.6 28.8
L48.6 28.8
z
" style="fill:#ffffff;"/>
   </g>
   <g id="line2d_1">
    <path clip-path="url(#p0b22ea0cd0)" d="
M56.0636 228.799
L96.019 188.69
L119.648 177.242
L136.918 171.747
L149.837 168.387
L160.433 166.069
L169.344 164.366
L177.067 163.035
L183.853 161.971
L189.92 161.096
L195.408 160.358
L200.462 159.729
L205.186 159.182
L209.482 158.703
L213.493 158.279
L217.221 157.901
L220.713 157.557
L223.998 157.248
L227.123 156.964
L230.093 156.704
L232.928 156.463
L235.628 156.24
L238.206 156.032
L240.669 155.837
L243.025 155.654
L245.287 155.481
L247.469 155.317
L249.591 155.161
L251.642 155.012
L253.628 154.87
L255.518 154.735
L257.366 154.604
L259.149 154.479
L260.888 154.358
L262.561 154.241
L264.193 154.128
L265.77 154.018
L267.32 153.912
L268.818 153.808
L270.274 153.708
L271.698 153.61
L273.093 153.514
L274.449 153.421
L275.771 153.33
L277.077 153.241
L278.354 153.154
L279.597 153.068
L280.813 152.984
L282.013 152.902
L283.205 152.821" style="fill:none;stroke:#0000ff;stroke-linecap:square;stroke-width:1.5;"/>
   </g>
   <g id="line2d_2">
    <path clip-path="url(#p0b22ea0cd0)" d="
M76.5965 237.178
L117.445 225.866
L141.845 241.065
L158.753 241.886
L171.774 242.066
L182.454 242.713
L191.33 242.899
L199.083 242.909
L205.901 242.889
L212.055 242.876
L217.735 242.872
L222.819 242.872
L227.563 242.872
L231.968 242.872
L236.053 242.872
L239.872 242.873
L243.572 242.873
L247.005 242.873
L250.208 242.873
L253.34 242.873
L256.293 242.873
L259.12 242.873
L261.824 242.873
L264.395 242.873
L266.871 242.873
L269.22 242.873
L271.485 242.873
L273.657 242.873
L275.697 242.873
L277.714 242.873" style="fill:none;stroke:#ff0000;stroke-linecap:square;stroke-width:1.5;"/>
   </g>
   <g id="line2d_3">
    <path clip-path="url(#p0b22ea0cd0)" d="
M52.4841 184.579
L92.6467 207.675
L116.13 208.835
L133.075 215.788
L146.347 219.627
L157.07 217.277
L166.126 215.58
L174.005 222.971
L180.87 225.798
L187.02 225.525
L192.554 227.672
L197.623 223.892
L202.262 224.276
L206.625 227.275
L210.65 227.295
L214.422 224.089
L217.941 229.268
L221.242 228.749
L224.36 229.195
L227.313 229.956
L230.125 230.45
L232.819 230.296
L235.392 229.618
L237.869 228.475
L240.256 229.166
L242.561 230.391
L244.794 229.011
L246.932 230.78
L248.977 229.421
L250.96 230.175
L252.888 230.44
L254.749 231.459
L256.552 231.29
L258.311 231.331
L260.015 231.374
L261.673 230.039
L263.263 229.987
L264.807 230.806
L266.319 231.217
L267.783 231.537
L269.223 231.565
L270.645 231.226
L272.032 231.38
L273.4 231.697
L274.735 232.672
L276.045 231.72
L277.34 231.159
L278.586 231.969
L279.796 231.561
L280.988 231.859" style="fill:none;stroke:#008000;stroke-linecap:square;stroke-width:1.5;"/>
   </g>
   <g id="line2d_4">
    <path clip-path="url(#p0b22ea0cd0)" d="
M51.3037 151.209
L91.3767 188.76
L114.937 196.845
L131.582 203.723
L144.727 215.172
L155.42 214.602
L164.382 213.206
L172.123 211.833
L179.007 212.793
L185.294 224.049
L190.879 213.282
L195.963 216.959
L200.607 221.485
L204.966 219.892
L209.049 220.942
L212.859 219.831
L216.407 223.551
L219.733 220.929
L222.87 223.533
L225.853 229.343
L228.696 226.051
L231.405 223.858
L234.006 227.072
L236.516 225.639
L238.908 224.861
L241.21 225.526
L243.401 228.76
L245.52 228.449
L247.565 225.893
L249.549 225.371
L251.47 229.506
L253.334 228.621
L255.13 226.137
L256.867 227.767
L258.552 228.546
L260.189 227.424
L261.775 229.885
L263.332 228.029
L264.84 229.513
L266.308 230.948
L267.739 228.226
L269.134 226.758
L270.495 226.697
L271.827 228.576
L273.125 228.122
L274.394 228.757
L275.636 229.609
L276.857 227.172
L278.058 229.18
L279.233 227.882" style="fill:none;stroke:#00bfbf;stroke-linecap:square;stroke-width:1.5;"/>
   </g>
   <g id="line2d_5">
    <path clip-path="url(#p0b22ea0cd0)" d="
M52.7024 34.8391
L92.8953 39.1001
L116.592 121.303
L133.466 144.362
L146.709 155.448
L157.24 168.647
L166.195 186.149
L173.939 206.362
L180.9 225.06
L187.05 237.265
L192.639 242.401
L197.696 244.034
L202.332 244.529
L206.609 244.691
L210.6 244.751
L214.376 244.775
L217.921 244.786
L221.282 244.791
L224.446 244.794
L227.421 244.796
L230.264 244.797
L232.944 244.798
L235.519 244.798
L237.993 244.798
L240.365 244.798
L242.657 244.799
L244.866 244.799
L246.981 244.799
L249.033 244.799
L251.01 244.799
L252.973 244.799
L254.832 244.799
L256.621 244.799
L258.353 244.799
L260.029 244.799
L261.66 244.799
L263.27 244.799
L264.829 244.799
L266.344 244.799
L267.813 244.799
L269.258 244.799
L270.665 244.799
L272.037 244.799
L273.373 244.799
L274.678 244.799
L275.966 244.799
L277.225 244.799
L278.456 244.799
L279.659 244.799
L280.841 244.799" style="fill:none;stroke:#bf00bf;stroke-linecap:square;stroke-width:1.5;"/>
   </g>
   <g id="line2d_6">
    <path clip-path="url(#p0b22ea0cd0)" d="
M51.5659 34.8391
L92.1433 39.1001
L115.788 121.686
L132.712 144.675
L145.796 155.822
L156.369 169.9
L165.344 188.808
L173.11 210.31
L179.991 228.974
L186.121 239.526
L191.669 243.264
L196.733 244.327
L201.447 244.634
L205.77 244.733
L209.826 244.769
L213.585 244.784
L217.112 244.791
L220.479 244.795
L223.651 244.797
L226.669 244.798
L229.504 244.799
L232.224 244.799
L234.798 244.799
L237.269 244.8
L239.658 244.8
L241.95 244.8
L244.146 244.8
L246.263 244.8
L248.306 244.8
L250.278 244.8
L252.196 244.8
L254.057 244.8
L255.856 244.8
L257.622 244.8
L259.315 244.8
L260.966 244.8
L262.561 244.8
L264.114 244.8
L265.632 244.8
L267.11 244.8
L268.544 244.8
L269.944 244.8
L271.311 244.8
L272.662 244.8
L273.968 244.8
L275.245 244.8
L276.498 244.8
L277.722 244.8
L278.919 244.8
L280.094 244.8" style="fill:none;stroke:#bfbf00;stroke-linecap:square;stroke-width:1.5;"/>
   </g>
   <g id="patch_2">
    <path d="
M48.6 244.8
L291.6 244.8" style="fill:none;stroke:#000000;stroke-linecap:square;stroke-linejoin:miter;"/>
   </g>
   <g id="patch_3">
    <path d="
M48.6 244.8
L48.6 28.8" style="fill:none;stroke:#000000;stroke-linecap:square;stroke-linejoin:miter;"/>
   </g>
   <g id="matplotlib.axis_1">
    <g id="xtick_1">
     <g id="line2d_7">
      <defs>
       <path d="
M0 0
L0 -4" id="m93b0483c22" style="stroke:#000000;stroke-width:0.5;"/>
      </defs>
      <g>
       <use style="stroke:#000000;stroke-width:0.5;" x="48.6" xlink:href="#m93b0483c22" y="244.8"/>
      </g>
     </g>
     <g id="text_1">
      <!-- $\mathdefault{2^{1}}$ -->
      <defs>
       <path d="
M19.1875 8.29688
L53.6094 8.29688
L53.6094 0
L7.32812 0
L7.32812 8.29688
Q12.9375 14.1094 22.625 23.8906
Q32.3281 33.6875 34.8125 36.5312
Q39.5469 41.8438 41.4219 45.5312
Q43.3125 49.2188 43.3125 52.7812
Q43.3125 58.5938 39.2344 62.25
Q35.1562 65.9219 28.6094 65.9219
Q23.9688 65.9219 18.8125 64.3125
Q13.6719 62.7031 7.8125 59.4219
L7.8125 69.3906
Q13.7656 71.7812 18.9375 73
Q24.125 74.2188 28.4219 74.2188
Q39.75 74.2188 46.4844 68.5469
Q53.2188 62.8906 53.2188 53.4219
Q53.2188 48.9219 51.5312 44.8906
Q49.8594 40.875 45.4062 35.4062
Q44.1875 33.9844 37.6406 27.2188
Q31.1094 20.4531 19.1875 8.29688" id="BitstreamVeraSans-Roman-32"/>
       <path d="
M12.4062 8.29688
L28.5156 8.29688
L28.5156 63.9219
L10.9844 60.4062
L10.9844 69.3906
L28.4219 72.9062
L38.2812 72.9062
L38.2812 8.29688
L54.3906 8.29688
L54.3906 0
L12.4062 0
z
" id="BitstreamVeraSans-Roman-31"/>
      </defs>
      <g transform="translate(40.8 258.784375)scale(0.12 -0.12)">
       <use transform="translate(0.0 0.465625)" xlink:href="#BitstreamVeraSans-Roman-32"/>
       <use transform="translate(63.623046875 52.965625)scale(0.7)" xlink:href="#BitstreamVeraSans-Roman-31"/>
      </g>
     </g>
    </g>
    <g id="xtick_2">
     <g id="line2d_8">
      <g>
       <use style="stroke:#000000;stroke-width:0.5;" x="89.1" xlink:href="#m93b0483c22" y="244.8"/>
      </g>
     </g>
     <g id="text_2">
      <!-- $\mathdefault{2^{2}}$ -->
      <g transform="translate(81.3 258.904375)scale(0.12 -0.12)">
       <use transform="translate(0.0 0.546875)" xlink:href="#BitstreamVeraSans-Roman-32"/>
       <use transform="translate(63.623046875 53.046875)scale(0.7)" xlink:href="#BitstreamVeraSans-Roman-32"/>
      </g>
     </g>
    </g>
    <g id="xtick_3">
     <g id="line2d_9">
      <g>
       <use style="stroke:#000000;stroke-width:0.5;" x="129.6" xlink:href="#m93b0483c22" y="244.8"/>
      </g>
     </g>
     <g id="text_3">
      <!-- $\mathdefault{2^{3}}$ -->
      <defs>
       <path d="
M40.5781 39.3125
Q47.6562 37.7969 51.625 33
Q55.6094 28.2188 55.6094 21.1875
Q55.6094 10.4062 48.1875 4.48438
Q40.7656 -1.42188 27.0938 -1.42188
Q22.5156 -1.42188 17.6562 -0.515625
Q12.7969 0.390625 7.625 2.20312
L7.625 11.7188
Q11.7188 9.32812 16.5938 8.10938
Q21.4844 6.89062 26.8125 6.89062
Q36.0781 6.89062 40.9375 10.5469
Q45.7969 14.2031 45.7969 21.1875
Q45.7969 27.6406 41.2812 31.2656
Q36.7656 34.9062 28.7188 34.9062
L20.2188 34.9062
L20.2188 43.0156
L29.1094 43.0156
Q36.375 43.0156 40.2344 45.9219
Q44.0938 48.8281 44.0938 54.2969
Q44.0938 59.9062 40.1094 62.9062
Q36.1406 65.9219 28.7188 65.9219
Q24.6562 65.9219 20.0156 65.0312
Q15.375 64.1562 9.8125 62.3125
L9.8125 71.0938
Q15.4375 72.6562 20.3438 73.4375
Q25.25 74.2188 29.5938 74.2188
Q40.8281 74.2188 47.3594 69.1094
Q53.9062 64.0156 53.9062 55.3281
Q53.9062 49.2656 50.4375 45.0938
Q46.9688 40.9219 40.5781 39.3125" id="BitstreamVeraSans-Roman-33"/>
      </defs>
      <g transform="translate(121.8 258.904375)scale(0.12 -0.12)">
       <use transform="translate(0.0 0.546875)" xlink:href="#BitstreamVeraSans-Roman-32"/>
       <use transform="translate(63.623046875 53.046875)scale(0.7)" xlink:href="#BitstreamVeraSans-Roman-33"/>
      </g>
     </g>
    </g>
    <g id="xtick_4">
     <g id="line2d_10">
      <g>
       <use style="stroke:#000000;stroke-width:0.5;" x="170.1" xlink:href="#m93b0483c22" y="244.8"/>
      </g>
     </g>
     <g id="text_4">
      <!-- $\mathdefault{2^{4}}$ -->
      <defs>
       <path d="
M37.7969 64.3125
L12.8906 25.3906
L37.7969 25.3906
z

M35.2031 72.9062
L47.6094 72.9062
L47.6094 25.3906
L58.0156 25.3906
L58.0156 17.1875
L47.6094 17.1875
L47.6094 0
L37.7969 0
L37.7969 17.1875
L4.89062 17.1875
L4.89062 26.7031
z
" id="BitstreamVeraSans-Roman-34"/>
      </defs>
      <g transform="translate(162.3 258.784375)scale(0.12 -0.12)">
       <use transform="translate(0.0 0.465625)" xlink:href="#BitstreamVeraSans-Roman-32"/>
       <use transform="translate(63.623046875 52.965625)scale(0.7)" xlink:href="#BitstreamVeraSans-Roman-34"/>
      </g>
     </g>
    </g>
    <g id="xtick_5">
     <g id="line2d_11">
      <g>
       <use style="stroke:#000000;stroke-width:0.5;" x="210.6" xlink:href="#m93b0483c22" y="244.8"/>
      </g>
     </g>
     <g id="text_5">
      <!-- $\mathdefault{2^{5}}$ -->
      <defs>
       <path d="
M10.7969 72.9062
L49.5156 72.9062
L49.5156 64.5938
L19.8281 64.5938
L19.8281 46.7344
Q21.9688 47.4688 24.1094 47.8281
Q26.2656 48.1875 28.4219 48.1875
Q40.625 48.1875 47.75 41.5
Q54.8906 34.8125 54.8906 23.3906
Q54.8906 11.625 47.5625 5.09375
Q40.2344 -1.42188 26.9062 -1.42188
Q22.3125 -1.42188 17.5469 -0.640625
Q12.7969 0.140625 7.71875 1.70312
L7.71875 11.625
Q12.1094 9.23438 16.7969 8.0625
Q21.4844 6.89062 26.7031 6.89062
Q35.1562 6.89062 40.0781 11.3281
Q45.0156 15.7656 45.0156 23.3906
Q45.0156 31 40.0781 35.4375
Q35.1562 39.8906 26.7031 39.8906
Q22.75 39.8906 18.8125 39.0156
Q14.8906 38.1406 10.7969 36.2812
z
" id="BitstreamVeraSans-Roman-35"/>
      </defs>
      <g transform="translate(202.8 258.784375)scale(0.12 -0.12)">
       <use transform="translate(0.0 0.465625)" xlink:href="#BitstreamVeraSans-Roman-32"/>
       <use transform="translate(63.623046875 52.965625)scale(0.7)" xlink:href="#BitstreamVeraSans-Roman-35"/>
      </g>
     </g>
    </g>
    <g id="xtick_6">
     <g id="line2d_12">
      <g>
       <use style="stroke:#000000;stroke-width:0.5;" x="251.1" xlink:href="#m93b0483c22" y="244.8"/>
      </g>
     </g>
     <g id="text_6">
      <!-- $\mathdefault{2^{6}}$ -->
      <defs>
       <path d="
M33.0156 40.375
Q26.375 40.375 22.4844 35.8281
Q18.6094 31.2969 18.6094 23.3906
Q18.6094 15.5312 22.4844 10.9531
Q26.375 6.39062 33.0156 6.39062
Q39.6562 6.39062 43.5312 10.9531
Q47.4062 15.5312 47.4062 23.3906
Q47.4062 31.2969 43.5312 35.8281
Q39.6562 40.375 33.0156 40.375
M52.5938 71.2969
L52.5938 62.3125
Q48.875 64.0625 45.0938 64.9844
Q41.3125 65.9219 37.5938 65.9219
Q27.8281 65.9219 22.6719 59.3281
Q17.5312 52.7344 16.7969 39.4062
Q19.6719 43.6562 24.0156 45.9219
Q28.375 48.1875 33.5938 48.1875
Q44.5781 48.1875 50.9531 41.5156
Q57.3281 34.8594 57.3281 23.3906
Q57.3281 12.1562 50.6875 5.35938
Q44.0469 -1.42188 33.0156 -1.42188
Q20.3594 -1.42188 13.6719 8.26562
Q6.98438 17.9688 6.98438 36.375
Q6.98438 53.6562 15.1875 63.9375
Q23.3906 74.2188 37.2031 74.2188
Q40.9219 74.2188 44.7031 73.4844
Q48.4844 72.75 52.5938 71.2969" id="BitstreamVeraSans-Roman-36"/>
      </defs>
      <g transform="translate(243.3 258.904375)scale(0.12 -0.12)">
       <use transform="translate(0.0 0.546875)" xlink:href="#BitstreamVeraSans-Roman-32"/>
       <use transform="translate(63.623046875 53.046875)scale(0.7)" xlink:href="#BitstreamVeraSans-Roman-36"/>
      </g>
     </g>
    </g>
    <g id="xtick_7">
     <g id="line2d_13">
      <g>
       <use style="stroke:#000000;stroke-width:0.5;" x="291.6" xlink:href="#m93b0483c22" y="244.8"/>
      </g>
     </g>
     <g id="text_7">
      <!-- $\mathdefault{2^{7}}$ -->
      <defs>
       <path d="
M8.20312 72.9062
L55.0781 72.9062
L55.0781 68.7031
L28.6094 0
L18.3125 0
L43.2188 64.5938
L8.20312 64.5938
z
" id="BitstreamVeraSans-Roman-37"/>
      </defs>
      <g transform="translate(283.8 258.784375)scale(0.12 -0.12)">
       <use transform="translate(0.0 0.465625)" xlink:href="#BitstreamVeraSans-Roman-32"/>
       <use transform="translate(63.623046875 52.965625)scale(0.7)" xlink:href="#BitstreamVeraSans-Roman-37"/>
      </g>
     </g>
    </g>
    <g id="xtick_8">
     <g id="line2d_14">
      <defs>
       <path d="
M0 0
L0 -2" id="m177f7580d0" style="stroke:#000000;stroke-width:0.5;"/>
      </defs>
      <g>
       <use style="stroke:#000000;stroke-width:0.5;" x="48.6" xlink:href="#m177f7580d0" y="244.8"/>
      </g>
     </g>
    </g>
    <g id="xtick_9">
     <g id="line2d_15">
      <g>
       <use style="stroke:#000000;stroke-width:0.5;" x="89.1" xlink:href="#m177f7580d0" y="244.8"/>
      </g>
     </g>
    </g>
    <g id="xtick_10">
     <g id="line2d_16">
      <g>
       <use style="stroke:#000000;stroke-width:0.5;" x="129.6" xlink:href="#m177f7580d0" y="244.8"/>
      </g>
     </g>
    </g>
    <g id="xtick_11">
     <g id="line2d_17">
      <g>
       <use style="stroke:#000000;stroke-width:0.5;" x="170.1" xlink:href="#m177f7580d0" y="244.8"/>
      </g>
     </g>
    </g>
    <g id="xtick_12">
     <g id="line2d_18">
      <g>
       <use style="stroke:#000000;stroke-width:0.5;" x="210.6" xlink:href="#m177f7580d0" y="244.8"/>
      </g>
     </g>
    </g>
    <g id="xtick_13">
     <g id="line2d_19">
      <g>
       <use style="stroke:#000000;stroke-width:0.5;" x="251.1" xlink:href="#m177f7580d0" y="244.8"/>
      </g>
     </g>
    </g>
    <g id="xtick_14">
     <g id="line2d_20">
      <g>
       <use style="stroke:#000000;stroke-width:0.5;" x="291.6" xlink:href="#m177f7580d0" y="244.8"/>
      </g>
     </g>
    </g>
    <g id="text_8">
     <!-- time (s) -->
     <defs>
      <path id="BitstreamVeraSans-Roman-20"/>
      <path d="
M8.01562 75.875
L15.8281 75.875
Q23.1406 64.3594 26.7812 53.3125
Q30.4219 42.2812 30.4219 31.3906
Q30.4219 20.4531 26.7812 9.375
Q23.1406 -1.70312 15.8281 -13.1875
L8.01562 -13.1875
Q14.5 -2 17.7031 9.0625
Q20.9062 20.125 20.9062 31.3906
Q20.9062 42.6719 17.7031 53.6562
Q14.5 64.6562 8.01562 75.875" id="BitstreamVeraSans-Roman-29"/>
      <path d="
M52 44.1875
Q55.375 50.25 60.0625 53.125
Q64.75 56 71.0938 56
Q79.6406 56 84.2812 50.0156
Q88.9219 44.0469 88.9219 33.0156
L88.9219 0
L79.8906 0
L79.8906 32.7188
Q79.8906 40.5781 77.0938 44.375
Q74.3125 48.1875 68.6094 48.1875
Q61.625 48.1875 57.5625 43.5469
Q53.5156 38.9219 53.5156 30.9062
L53.5156 0
L44.4844 0
L44.4844 32.7188
Q44.4844 40.625 41.7031 44.4062
Q38.9219 48.1875 33.1094 48.1875
Q26.2188 48.1875 22.1562 43.5312
Q18.1094 38.875 18.1094 30.9062
L18.1094 0
L9.07812 0
L9.07812 54.6875
L18.1094 54.6875
L18.1094 46.1875
Q21.1875 51.2188 25.4844 53.6094
Q29.7812 56 35.6875 56
Q41.6562 56 45.8281 52.9688
Q50 49.9531 52 44.1875" id="BitstreamVeraSans-Roman-6d"/>
      <path d="
M9.42188 54.6875
L18.4062 54.6875
L18.4062 0
L9.42188 0
z

M9.42188 75.9844
L18.4062 75.9844
L18.4062 64.5938
L9.42188 64.5938
z
" id="BitstreamVeraSans-Roman-69"/>
      <path d="
M31 75.875
Q24.4688 64.6562 21.2812 53.6562
Q18.1094 42.6719 18.1094 31.3906
Q18.1094 20.125 21.3125 9.0625
Q24.5156 -2 31 -13.1875
L23.1875 -13.1875
Q15.875 -1.70312 12.2344 9.375
Q8.59375 20.4531 8.59375 31.3906
Q8.59375 42.2812 12.2031 53.3125
Q15.8281 64.3594 23.1875 75.875
z
" id="BitstreamVeraSans-Roman-28"/>
      <path d="
M56.2031 29.5938
L56.2031 25.2031
L14.8906 25.2031
Q15.4844 15.9219 20.4844 11.0625
Q25.4844 6.20312 34.4219 6.20312
Q39.5938 6.20312 44.4531 7.46875
Q49.3125 8.73438 54.1094 11.2812
L54.1094 2.78125
Q49.2656 0.734375 44.1875 -0.34375
Q39.1094 -1.42188 33.8906 -1.42188
Q20.7969 -1.42188 13.1562 6.1875
Q5.51562 13.8125 5.51562 26.8125
Q5.51562 40.2344 12.7656 48.1094
Q20.0156 56 32.3281 56
Q43.3594 56 49.7812 48.8906
Q56.2031 41.7969 56.2031 29.5938
M47.2188 32.2344
Q47.125 39.5938 43.0938 43.9844
Q39.0625 48.3906 32.4219 48.3906
Q24.9062 48.3906 20.3906 44.1406
Q15.875 39.8906 15.1875 32.1719
z
" id="BitstreamVeraSans-Roman-65"/>
      <path d="
M18.3125 70.2188
L18.3125 54.6875
L36.8125 54.6875
L36.8125 47.7031
L18.3125 47.7031
L18.3125 18.0156
Q18.3125 11.3281 20.1406 9.42188
Q21.9688 7.51562 27.5938 7.51562
L36.8125 7.51562
L36.8125 0
L27.5938 0
Q17.1875 0 13.2344 3.875
Q9.28125 7.76562 9.28125 18.0156
L9.28125 47.7031
L2.6875 47.7031
L2.6875 54.6875
L9.28125 54.6875
L9.28125 70.2188
z
" id="BitstreamVeraSans-Roman-74"/>
      <path d="
M44.2812 53.0781
L44.2812 44.5781
Q40.4844 46.5312 36.375 47.5
Q32.2812 48.4844 27.875 48.4844
Q21.1875 48.4844 17.8438 46.4375
Q14.5 44.3906 14.5 40.2812
Q14.5 37.1562 16.8906 35.375
Q19.2812 33.5938 26.5156 31.9844
L29.5938 31.2969
Q39.1562 29.25 43.1875 25.5156
Q47.2188 21.7812 47.2188 15.0938
Q47.2188 7.46875 41.1875 3.01562
Q35.1562 -1.42188 24.6094 -1.42188
Q20.2188 -1.42188 15.4531 -0.5625
Q10.6875 0.296875 5.42188 2
L5.42188 11.2812
Q10.4062 8.6875 15.2344 7.39062
Q20.0625 6.10938 24.8125 6.10938
Q31.1562 6.10938 34.5625 8.28125
Q37.9844 10.4531 37.9844 14.4062
Q37.9844 18.0625 35.5156 20.0156
Q33.0625 21.9688 24.7031 23.7812
L21.5781 24.5156
Q13.2344 26.2656 9.51562 29.9062
Q5.8125 33.5469 5.8125 39.8906
Q5.8125 47.6094 11.2812 51.7969
Q16.75 56 26.8125 56
Q31.7812 56 36.1719 55.2656
Q40.5781 54.5469 44.2812 53.0781" id="BitstreamVeraSans-Roman-73"/>
     </defs>
     <g transform="translate(147.3459375 275.518125)scale(0.12 -0.12)">
      <use xlink:href="#BitstreamVeraSans-Roman-74"/>
      <use x="39.208984375" xlink:href="#BitstreamVeraSans-Roman-69"/>
      <use x="66.9921875" xlink:href="#BitstreamVeraSans-Roman-6d"/>
      <use x="164.404296875" xlink:href="#BitstreamVeraSans-Roman-65"/>
      <use x="225.927734375" xlink:href="#BitstreamVeraSans-Roman-20"/>
      <use x="257.71484375" xlink:href="#BitstreamVeraSans-Roman-28"/>
      <use x="296.728515625" xlink:href="#BitstreamVeraSans-Roman-73"/>
      <use x="348.828125" xlink:href="#BitstreamVeraSans-Roman-29"/>
     </g>
    </g>
   </g>
   <g id="matplotlib.axis_2">
    <g id="ytick_1">
     <g id="line2d_21">
      <defs>
       <path d="
M0 0
L4 0" id="m728421d6d4" style="stroke:#000000;stroke-width:0.5;"/>
      </defs>
      <g>
       <use style="stroke:#000000;stroke-width:0.5;" x="48.6" xlink:href="#m728421d6d4" y="237.218123794"/>
      </g>
     </g>
     <g id="text_9">
      <!-- $\mathdefault{10^{-1}}$ -->
      <defs>
       <path d="
M31.7812 66.4062
Q24.1719 66.4062 20.3281 58.9062
Q16.5 51.4219 16.5 36.375
Q16.5 21.3906 20.3281 13.8906
Q24.1719 6.39062 31.7812 6.39062
Q39.4531 6.39062 43.2812 13.8906
Q47.125 21.3906 47.125 36.375
Q47.125 51.4219 43.2812 58.9062
Q39.4531 66.4062 31.7812 66.4062
M31.7812 74.2188
Q44.0469 74.2188 50.5156 64.5156
Q56.9844 54.8281 56.9844 36.375
Q56.9844 17.9688 50.5156 8.26562
Q44.0469 -1.42188 31.7812 -1.42188
Q19.5312 -1.42188 13.0625 8.26562
Q6.59375 17.9688 6.59375 36.375
Q6.59375 54.8281 13.0625 64.5156
Q19.5312 74.2188 31.7812 74.2188" id="BitstreamVeraSans-Roman-30"/>
       <path d="
M4.89062 31.3906
L31.2031 31.3906
L31.2031 23.3906
L4.89062 23.3906
z
" id="BitstreamVeraSans-Roman-2d"/>
      </defs>
      <g transform="translate(18.32 241.082498794)scale(0.12 -0.12)">
       <use transform="translate(0.0 0.465625)" xlink:href="#BitstreamVeraSans-Roman-31"/>
       <use transform="translate(63.623046875 0.465625)" xlink:href="#BitstreamVeraSans-Roman-30"/>
       <use transform="translate(127.24609375 52.965625)scale(0.7)" xlink:href="#BitstreamVeraSans-Roman-2d"/>
       <use transform="translate(152.504882812 52.965625)scale(0.7)" xlink:href="#BitstreamVeraSans-Roman-31"/>
      </g>
     </g>
    </g>
    <g id="ytick_2">
     <g id="line2d_22">
      <g>
       <use style="stroke:#000000;stroke-width:0.5;" x="48.6" xlink:href="#m728421d6d4" y="200.646932222"/>
      </g>
     </g>
     <g id="text_10">
      <!-- $\mathdefault{10^{0}}$ -->
      <g transform="translate(21.44 204.571307222)scale(0.12 -0.12)">
       <use transform="translate(0.0 0.546875)" xlink:href="#BitstreamVeraSans-Roman-31"/>
       <use transform="translate(63.623046875 0.546875)" xlink:href="#BitstreamVeraSans-Roman-30"/>
       <use transform="translate(127.24609375 53.046875)scale(0.7)" xlink:href="#BitstreamVeraSans-Roman-30"/>
      </g>
     </g>
    </g>
    <g id="ytick_3">
     <g id="line2d_23">
      <g>
       <use style="stroke:#000000;stroke-width:0.5;" x="48.6" xlink:href="#m728421d6d4" y="164.075740649"/>
      </g>
     </g>
     <g id="text_11">
      <!-- $\mathdefault{10^{1}}$ -->
      <g transform="translate(21.44 167.940115649)scale(0.12 -0.12)">
       <use transform="translate(0.0 0.465625)" xlink:href="#BitstreamVeraSans-Roman-31"/>
       <use transform="translate(63.623046875 0.465625)" xlink:href="#BitstreamVeraSans-Roman-30"/>
       <use transform="translate(127.24609375 52.965625)scale(0.7)" xlink:href="#BitstreamVeraSans-Roman-31"/>
      </g>
     </g>
    </g>
    <g id="ytick_4">
     <g id="line2d_24">
      <g>
       <use style="stroke:#000000;stroke-width:0.5;" x="48.6" xlink:href="#m728421d6d4" y="127.504549077"/>
      </g>
     </g>
     <g id="text_12">
      <!-- $\mathdefault{10^{2}}$ -->
      <g transform="translate(21.44 131.428924077)scale(0.12 -0.12)">
       <use transform="translate(0.0 0.546875)" xlink:href="#BitstreamVeraSans-Roman-31"/>
       <use transform="translate(63.623046875 0.546875)" xlink:href="#BitstreamVeraSans-Roman-30"/>
       <use transform="translate(127.24609375 53.046875)scale(0.7)" xlink:href="#BitstreamVeraSans-Roman-32"/>
      </g>
     </g>
    </g>
    <g id="ytick_5">
     <g id="line2d_25">
      <g>
       <use style="stroke:#000000;stroke-width:0.5;" x="48.6" xlink:href="#m728421d6d4" y="90.9333575043"/>
      </g>
     </g>
     <g id="text_13">
      <!-- $\mathdefault{10^{3}}$ -->
      <g transform="translate(21.44 94.8577325043)scale(0.12 -0.12)">
       <use transform="translate(0.0 0.546875)" xlink:href="#BitstreamVeraSans-Roman-31"/>
       <use transform="translate(63.623046875 0.546875)" xlink:href="#BitstreamVeraSans-Roman-30"/>
       <use transform="translate(127.24609375 53.046875)scale(0.7)" xlink:href="#BitstreamVeraSans-Roman-33"/>
      </g>
     </g>
    </g>
    <g id="ytick_6">
     <g id="line2d_26">
      <g>
       <use style="stroke:#000000;stroke-width:0.5;" x="48.6" xlink:href="#m728421d6d4" y="54.3621659319"/>
      </g>
     </g>
     <g id="text_14">
      <!-- $\mathdefault{10^{4}}$ -->
      <g transform="translate(21.44 58.2265409319)scale(0.12 -0.12)">
       <use transform="translate(0.0 0.465625)" xlink:href="#BitstreamVeraSans-Roman-31"/>
       <use transform="translate(63.623046875 0.465625)" xlink:href="#BitstreamVeraSans-Roman-30"/>
       <use transform="translate(127.24609375 52.965625)scale(0.7)" xlink:href="#BitstreamVeraSans-Roman-34"/>
      </g>
     </g>
    </g>
    <g id="ytick_7">
     <g id="line2d_27">
      <defs>
       <path d="
M0 0
L2 0" id="mf0c55a9a47" style="stroke:#000000;stroke-width:0.5;"/>
      </defs>
      <g>
       <use style="stroke:#000000;stroke-width:0.5;" x="48.6" xlink:href="#mf0c55a9a47" y="242.883073048"/>
      </g>
     </g>
    </g>
    <g id="ytick_8">
     <g id="line2d_28">
      <g>
       <use style="stroke:#000000;stroke-width:0.5;" x="48.6" xlink:href="#mf0c55a9a47" y="240.762238445"/>
      </g>
     </g>
    </g>
    <g id="ytick_9">
     <g id="line2d_29">
      <g>
       <use style="stroke:#000000;stroke-width:0.5;" x="48.6" xlink:href="#mf0c55a9a47" y="238.891529747"/>
      </g>
     </g>
    </g>
    <g id="ytick_10">
     <g id="line2d_30">
      <g>
       <use style="stroke:#000000;stroke-width:0.5;" x="48.6" xlink:href="#mf0c55a9a47" y="226.209098154"/>
      </g>
     </g>
    </g>
    <g id="ytick_11">
     <g id="line2d_31">
      <g>
       <use style="stroke:#000000;stroke-width:0.5;" x="48.6" xlink:href="#mf0c55a9a47" y="219.769230984"/>
      </g>
     </g>
    </g>
    <g id="ytick_12">
     <g id="line2d_32">
      <g>
       <use style="stroke:#000000;stroke-width:0.5;" x="48.6" xlink:href="#mf0c55a9a47" y="215.200072513"/>
      </g>
     </g>
    </g>
    <g id="ytick_13">
     <g id="line2d_33">
      <g>
       <use style="stroke:#000000;stroke-width:0.5;" x="48.6" xlink:href="#mf0c55a9a47" y="211.655957862"/>
      </g>
     </g>
    </g>
    <g id="ytick_14">
     <g id="line2d_34">
      <g>
       <use style="stroke:#000000;stroke-width:0.5;" x="48.6" xlink:href="#mf0c55a9a47" y="208.760205344"/>
      </g>
     </g>
    </g>
    <g id="ytick_15">
     <g id="line2d_35">
      <g>
       <use style="stroke:#000000;stroke-width:0.5;" x="48.6" xlink:href="#mf0c55a9a47" y="206.311881475"/>
      </g>
     </g>
    </g>
    <g id="ytick_16">
     <g id="line2d_36">
      <g>
       <use style="stroke:#000000;stroke-width:0.5;" x="48.6" xlink:href="#mf0c55a9a47" y="204.191046873"/>
      </g>
     </g>
    </g>
    <g id="ytick_17">
     <g id="line2d_37">
      <g>
       <use style="stroke:#000000;stroke-width:0.5;" x="48.6" xlink:href="#mf0c55a9a47" y="202.320338175"/>
      </g>
     </g>
    </g>
    <g id="ytick_18">
     <g id="line2d_38">
      <g>
       <use style="stroke:#000000;stroke-width:0.5;" x="48.6" xlink:href="#mf0c55a9a47" y="189.637906581"/>
      </g>
     </g>
    </g>
    <g id="ytick_19">
     <g id="line2d_39">
      <g>
       <use style="stroke:#000000;stroke-width:0.5;" x="48.6" xlink:href="#mf0c55a9a47" y="183.198039412"/>
      </g>
     </g>
    </g>
    <g id="ytick_20">
     <g id="line2d_40">
      <g>
       <use style="stroke:#000000;stroke-width:0.5;" x="48.6" xlink:href="#mf0c55a9a47" y="178.628880941"/>
      </g>
     </g>
    </g>
    <g id="ytick_21">
     <g id="line2d_41">
      <g>
       <use style="stroke:#000000;stroke-width:0.5;" x="48.6" xlink:href="#mf0c55a9a47" y="175.08476629"/>
      </g>
     </g>
    </g>
    <g id="ytick_22">
     <g id="line2d_42">
      <g>
       <use style="stroke:#000000;stroke-width:0.5;" x="48.6" xlink:href="#mf0c55a9a47" y="172.189013771"/>
      </g>
     </g>
    </g>
    <g id="ytick_23">
     <g id="line2d_43">
      <g>
       <use style="stroke:#000000;stroke-width:0.5;" x="48.6" xlink:href="#mf0c55a9a47" y="169.740689903"/>
      </g>
     </g>
    </g>
    <g id="ytick_24">
     <g id="line2d_44">
      <g>
       <use style="stroke:#000000;stroke-width:0.5;" x="48.6" xlink:href="#mf0c55a9a47" y="167.6198553"/>
      </g>
     </g>
    </g>
    <g id="ytick_25">
     <g id="line2d_45">
      <g>
       <use style="stroke:#000000;stroke-width:0.5;" x="48.6" xlink:href="#mf0c55a9a47" y="165.749146602"/>
      </g>
     </g>
    </g>
    <g id="ytick_26">
     <g id="line2d_46">
      <g>
       <use style="stroke:#000000;stroke-width:0.5;" x="48.6" xlink:href="#mf0c55a9a47" y="153.066715009"/>
      </g>
     </g>
    </g>
    <g id="ytick_27">
     <g id="line2d_47">
      <g>
       <use style="stroke:#000000;stroke-width:0.5;" x="48.6" xlink:href="#mf0c55a9a47" y="146.62684784"/>
      </g>
     </g>
    </g>
    <g id="ytick_28">
     <g id="line2d_48">
      <g>
       <use style="stroke:#000000;stroke-width:0.5;" x="48.6" xlink:href="#mf0c55a9a47" y="142.057689368"/>
      </g>
     </g>
    </g>
    <g id="ytick_29">
     <g id="line2d_49">
      <g>
       <use style="stroke:#000000;stroke-width:0.5;" x="48.6" xlink:href="#mf0c55a9a47" y="138.513574717"/>
      </g>
     </g>
    </g>
    <g id="ytick_30">
     <g id="line2d_50">
      <g>
       <use style="stroke:#000000;stroke-width:0.5;" x="48.6" xlink:href="#mf0c55a9a47" y="135.617822199"/>
      </g>
     </g>
    </g>
    <g id="ytick_31">
     <g id="line2d_51">
      <g>
       <use style="stroke:#000000;stroke-width:0.5;" x="48.6" xlink:href="#mf0c55a9a47" y="133.16949833"/>
      </g>
     </g>
    </g>
    <g id="ytick_32">
     <g id="line2d_52">
      <g>
       <use style="stroke:#000000;stroke-width:0.5;" x="48.6" xlink:href="#mf0c55a9a47" y="131.048663728"/>
      </g>
     </g>
    </g>
    <g id="ytick_33">
     <g id="line2d_53">
      <g>
       <use style="stroke:#000000;stroke-width:0.5;" x="48.6" xlink:href="#mf0c55a9a47" y="129.17795503"/>
      </g>
     </g>
    </g>
    <g id="ytick_34">
     <g id="line2d_54">
      <g>
       <use style="stroke:#000000;stroke-width:0.5;" x="48.6" xlink:href="#mf0c55a9a47" y="116.495523436"/>
      </g>
     </g>
    </g>
    <g id="ytick_35">
     <g id="line2d_55">
      <g>
       <use style="stroke:#000000;stroke-width:0.5;" x="48.6" xlink:href="#mf0c55a9a47" y="110.055656267"/>
      </g>
     </g>
    </g>
    <g id="ytick_36">
     <g id="line2d_56">
      <g>
       <use style="stroke:#000000;stroke-width:0.5;" x="48.6" xlink:href="#mf0c55a9a47" y="105.486497796"/>
      </g>
     </g>
    </g>
    <g id="ytick_37">
     <g id="line2d_57">
      <g>
       <use style="stroke:#000000;stroke-width:0.5;" x="48.6" xlink:href="#mf0c55a9a47" y="101.942383145"/>
      </g>
     </g>
    </g>
    <g id="ytick_38">
     <g id="line2d_58">
      <g>
       <use style="stroke:#000000;stroke-width:0.5;" x="48.6" xlink:href="#mf0c55a9a47" y="99.0466306267"/>
      </g>
     </g>
    </g>
    <g id="ytick_39">
     <g id="line2d_59">
      <g>
       <use style="stroke:#000000;stroke-width:0.5;" x="48.6" xlink:href="#mf0c55a9a47" y="96.5983067579"/>
      </g>
     </g>
    </g>
    <g id="ytick_40">
     <g id="line2d_60">
      <g>
       <use style="stroke:#000000;stroke-width:0.5;" x="48.6" xlink:href="#mf0c55a9a47" y="94.4774721553"/>
      </g>
     </g>
    </g>
    <g id="ytick_41">
     <g id="line2d_61">
      <g>
       <use style="stroke:#000000;stroke-width:0.5;" x="48.6" xlink:href="#mf0c55a9a47" y="92.6067634575"/>
      </g>
     </g>
    </g>
    <g id="ytick_42">
     <g id="line2d_62">
      <g>
       <use style="stroke:#000000;stroke-width:0.5;" x="48.6" xlink:href="#mf0c55a9a47" y="79.9243318639"/>
      </g>
     </g>
    </g>
    <g id="ytick_43">
     <g id="line2d_63">
      <g>
       <use style="stroke:#000000;stroke-width:0.5;" x="48.6" xlink:href="#mf0c55a9a47" y="73.4844646947"/>
      </g>
     </g>
    </g>
    <g id="ytick_44">
     <g id="line2d_64">
      <g>
       <use style="stroke:#000000;stroke-width:0.5;" x="48.6" xlink:href="#mf0c55a9a47" y="68.9153062234"/>
      </g>
     </g>
    </g>
    <g id="ytick_45">
     <g id="line2d_65">
      <g>
       <use style="stroke:#000000;stroke-width:0.5;" x="48.6" xlink:href="#mf0c55a9a47" y="65.3711915724"/>
      </g>
     </g>
    </g>
    <g id="ytick_46">
     <g id="line2d_66">
      <g>
       <use style="stroke:#000000;stroke-width:0.5;" x="48.6" xlink:href="#mf0c55a9a47" y="62.4754390543"/>
      </g>
     </g>
    </g>
    <g id="ytick_47">
     <g id="line2d_67">
      <g>
       <use style="stroke:#000000;stroke-width:0.5;" x="48.6" xlink:href="#mf0c55a9a47" y="60.0271151855"/>
      </g>
     </g>
    </g>
    <g id="ytick_48">
     <g id="line2d_68">
      <g>
       <use style="stroke:#000000;stroke-width:0.5;" x="48.6" xlink:href="#mf0c55a9a47" y="57.9062805829"/>
      </g>
     </g>
    </g>
    <g id="ytick_49">
     <g id="line2d_69">
      <g>
       <use style="stroke:#000000;stroke-width:0.5;" x="48.6" xlink:href="#mf0c55a9a47" y="56.0355718851"/>
      </g>
     </g>
    </g>
    <g id="ytick_50">
     <g id="line2d_70">
      <g>
       <use style="stroke:#000000;stroke-width:0.5;" x="48.6" xlink:href="#mf0c55a9a47" y="43.3531402915"/>
      </g>
     </g>
    </g>
    <g id="ytick_51">
     <g id="line2d_71">
      <g>
       <use style="stroke:#000000;stroke-width:0.5;" x="48.6" xlink:href="#mf0c55a9a47" y="36.9132731223"/>
      </g>
     </g>
    </g>
    <g id="ytick_52">
     <g id="line2d_72">
      <g>
       <use style="stroke:#000000;stroke-width:0.5;" x="48.6" xlink:href="#mf0c55a9a47" y="32.344114651"/>
      </g>
     </g>
    </g>
    <g id="ytick_53">
     <g id="line2d_73">
      <g>
       <use style="stroke:#000000;stroke-width:0.5;" x="48.6" xlink:href="#mf0c55a9a47" y="28.8"/>
      </g>
     </g>
    </g>
    <g id="text_15">
     <!-- approx. KL -->
     <defs>
      <path d="
M9.8125 72.9062
L19.6719 72.9062
L19.6719 8.29688
L55.1719 8.29688
L55.1719 0
L9.8125 0
z
" id="BitstreamVeraSans-Roman-4c"/>
      <path d="
M9.8125 72.9062
L19.6719 72.9062
L19.6719 42.0938
L52.3906 72.9062
L65.0938 72.9062
L28.9062 38.9219
L67.6719 0
L54.6875 0
L19.6719 35.1094
L19.6719 0
L9.8125 0
z
" id="BitstreamVeraSans-Roman-4b"/>
      <path d="
M34.2812 27.4844
Q23.3906 27.4844 19.1875 25
Q14.9844 22.5156 14.9844 16.5
Q14.9844 11.7188 18.1406 8.90625
Q21.2969 6.10938 26.7031 6.10938
Q34.1875 6.10938 38.7031 11.4062
Q43.2188 16.7031 43.2188 25.4844
L43.2188 27.4844
z

M52.2031 31.2031
L52.2031 0
L43.2188 0
L43.2188 8.29688
Q40.1406 3.32812 35.5469 0.953125
Q30.9531 -1.42188 24.3125 -1.42188
Q15.9219 -1.42188 10.9531 3.29688
Q6 8.01562 6 15.9219
Q6 25.1406 12.1719 29.8281
Q18.3594 34.5156 30.6094 34.5156
L43.2188 34.5156
L43.2188 35.4062
Q43.2188 41.6094 39.1406 45
Q35.0625 48.3906 27.6875 48.3906
Q23 48.3906 18.5469 47.2656
Q14.1094 46.1406 10.0156 43.8906
L10.0156 52.2031
Q14.9375 54.1094 19.5781 55.0469
Q24.2188 56 28.6094 56
Q40.4844 56 46.3438 49.8438
Q52.2031 43.7031 52.2031 31.2031" id="BitstreamVeraSans-Roman-61"/>
      <path d="
M30.6094 48.3906
Q23.3906 48.3906 19.1875 42.75
Q14.9844 37.1094 14.9844 27.2969
Q14.9844 17.4844 19.1562 11.8438
Q23.3438 6.20312 30.6094 6.20312
Q37.7969 6.20312 41.9844 11.8594
Q46.1875 17.5312 46.1875 27.2969
Q46.1875 37.0156 41.9844 42.7031
Q37.7969 48.3906 30.6094 48.3906
M30.6094 56
Q42.3281 56 49.0156 48.375
Q55.7188 40.7656 55.7188 27.2969
Q55.7188 13.875 49.0156 6.21875
Q42.3281 -1.42188 30.6094 -1.42188
Q18.8438 -1.42188 12.1719 6.21875
Q5.51562 13.875 5.51562 27.2969
Q5.51562 40.7656 12.1719 48.375
Q18.8438 56 30.6094 56" id="BitstreamVeraSans-Roman-6f"/>
      <path d="
M10.6875 12.4062
L21 12.4062
L21 0
L10.6875 0
z
" id="BitstreamVeraSans-Roman-2e"/>
      <path d="
M54.8906 54.6875
L35.1094 28.0781
L55.9062 0
L45.3125 0
L29.3906 21.4844
L13.4844 0
L2.875 0
L24.125 28.6094
L4.6875 54.6875
L15.2812 54.6875
L29.7812 35.2031
L44.2812 54.6875
z
" id="BitstreamVeraSans-Roman-78"/>
      <path d="
M41.1094 46.2969
Q39.5938 47.1719 37.8125 47.5781
Q36.0312 48 33.8906 48
Q26.2656 48 22.1875 43.0469
Q18.1094 38.0938 18.1094 28.8125
L18.1094 0
L9.07812 0
L9.07812 54.6875
L18.1094 54.6875
L18.1094 46.1875
Q20.9531 51.1719 25.4844 53.5781
Q30.0312 56 36.5312 56
Q37.4531 56 38.5781 55.875
Q39.7031 55.7656 41.0625 55.5156
z
" id="BitstreamVeraSans-Roman-72"/>
      <path d="
M18.1094 8.20312
L18.1094 -20.7969
L9.07812 -20.7969
L9.07812 54.6875
L18.1094 54.6875
L18.1094 46.3906
Q20.9531 51.2656 25.2656 53.625
Q29.5938 56 35.5938 56
Q45.5625 56 51.7812 48.0938
Q58.0156 40.1875 58.0156 27.2969
Q58.0156 14.4062 51.7812 6.48438
Q45.5625 -1.42188 35.5938 -1.42188
Q29.5938 -1.42188 25.2656 0.953125
Q20.9531 3.32812 18.1094 8.20312
M48.6875 27.2969
Q48.6875 37.2031 44.6094 42.8438
Q40.5312 48.4844 33.4062 48.4844
Q26.2656 48.4844 22.1875 42.8438
Q18.1094 37.2031 18.1094 27.2969
Q18.1094 17.3906 22.1875 11.75
Q26.2656 6.10938 33.4062 6.10938
Q40.5312 6.10938 44.6094 11.75
Q48.6875 17.3906 48.6875 27.2969" id="BitstreamVeraSans-Roman-70"/>
     </defs>
     <g transform="translate(10.824375 168.5203125)rotate(-90.0)scale(0.12 -0.12)">
      <use xlink:href="#BitstreamVeraSans-Roman-61"/>
      <use x="61.279296875" xlink:href="#BitstreamVeraSans-Roman-70"/>
      <use x="124.755859375" xlink:href="#BitstreamVeraSans-Roman-70"/>
      <use x="188.232421875" xlink:href="#BitstreamVeraSans-Roman-72"/>
      <use x="227.095703125" xlink:href="#BitstreamVeraSans-Roman-6f"/>
      <use x="285.15234375" xlink:href="#BitstreamVeraSans-Roman-78"/>
      <use x="344.33203125" xlink:href="#BitstreamVeraSans-Roman-2e"/>
      <use x="376.119140625" xlink:href="#BitstreamVeraSans-Roman-20"/>
      <use x="407.90625" xlink:href="#BitstreamVeraSans-Roman-4b"/>
      <use x="473.482421875" xlink:href="#BitstreamVeraSans-Roman-4c"/>
     </g>
    </g>
   </g>
   <g id="legend_1">
    <g id="line2d_74">
     <path d="
M178.219 44.5181
L195.019 44.5181" style="fill:none;stroke:#0000ff;stroke-linecap:square;stroke-width:1.5;"/>
    </g>
    <g id="line2d_75"/>
    <g id="text_16">
     <!-- ADF -->
     <defs>
      <path d="
M9.8125 72.9062
L51.7031 72.9062
L51.7031 64.5938
L19.6719 64.5938
L19.6719 43.1094
L48.5781 43.1094
L48.5781 34.8125
L19.6719 34.8125
L19.6719 0
L9.8125 0
z
" id="BitstreamVeraSans-Roman-46"/>
      <path d="
M19.6719 64.7969
L19.6719 8.10938
L31.5938 8.10938
Q46.6875 8.10938 53.6875 14.9375
Q60.6875 21.7812 60.6875 36.5312
Q60.6875 51.1719 53.6875 57.9844
Q46.6875 64.7969 31.5938 64.7969
z

M9.8125 72.9062
L30.0781 72.9062
Q51.2656 72.9062 61.1719 64.0938
Q71.0938 55.2812 71.0938 36.5312
Q71.0938 17.6719 61.125 8.82812
Q51.1719 0 30.0781 0
L9.8125 0
z
" id="BitstreamVeraSans-Roman-44"/>
      <path d="
M34.1875 63.1875
L20.7969 26.9062
L47.6094 26.9062
z

M28.6094 72.9062
L39.7969 72.9062
L67.5781 0
L57.3281 0
L50.6875 18.7031
L17.8281 18.7031
L11.1875 0
L0.78125 0
z
" id="BitstreamVeraSans-Roman-41"/>
     </defs>
     <g transform="translate(208.21875 48.718125)scale(0.12 -0.12)">
      <use xlink:href="#BitstreamVeraSans-Roman-41"/>
      <use x="68.408203125" xlink:href="#BitstreamVeraSans-Roman-44"/>
      <use x="145.41015625" xlink:href="#BitstreamVeraSans-Roman-46"/>
     </g>
    </g>
    <g id="line2d_76">
     <path d="
M178.219 62.1319
L195.019 62.1319" style="fill:none;stroke:#ff0000;stroke-linecap:square;stroke-width:1.5;"/>
    </g>
    <g id="line2d_77"/>
    <g id="text_17">
     <!-- EP -->
     <defs>
      <path d="
M19.6719 64.7969
L19.6719 37.4062
L32.0781 37.4062
Q38.9688 37.4062 42.7188 40.9688
Q46.4844 44.5312 46.4844 51.125
Q46.4844 57.6719 42.7188 61.2344
Q38.9688 64.7969 32.0781 64.7969
z

M9.8125 72.9062
L32.0781 72.9062
Q44.3438 72.9062 50.6094 67.3594
Q56.8906 61.8125 56.8906 51.125
Q56.8906 40.3281 50.6094 34.8125
Q44.3438 29.2969 32.0781 29.2969
L19.6719 29.2969
L19.6719 0
L9.8125 0
z
" id="BitstreamVeraSans-Roman-50"/>
      <path d="
M9.8125 72.9062
L55.9062 72.9062
L55.9062 64.5938
L19.6719 64.5938
L19.6719 43.0156
L54.3906 43.0156
L54.3906 34.7188
L19.6719 34.7188
L19.6719 8.29688
L56.7812 8.29688
L56.7812 0
L9.8125 0
z
" id="BitstreamVeraSans-Roman-45"/>
     </defs>
     <g transform="translate(208.21875 66.331875)scale(0.12 -0.12)">
      <use xlink:href="#BitstreamVeraSans-Roman-45"/>
      <use x="63.18359375" xlink:href="#BitstreamVeraSans-Roman-50"/>
     </g>
    </g>
    <g id="line2d_78">
     <path d="
M178.219 79.7456
L195.019 79.7456" style="fill:none;stroke:#008000;stroke-linecap:square;stroke-width:1.5;"/>
    </g>
    <g id="line2d_79"/>
    <g id="text_18">
     <!-- SEP, M=100 -->
     <defs>
      <path d="
M11.7188 12.4062
L22.0156 12.4062
L22.0156 4
L14.0156 -11.625
L7.71875 -11.625
L11.7188 4
z
" id="BitstreamVeraSans-Roman-2c"/>
      <path d="
M53.5156 70.5156
L53.5156 60.8906
Q47.9062 63.5781 42.9219 64.8906
Q37.9375 66.2188 33.2969 66.2188
Q25.25 66.2188 20.875 63.0938
Q16.5 59.9688 16.5 54.2031
Q16.5 49.3594 19.4062 46.8906
Q22.3125 44.4375 30.4219 42.9219
L36.375 41.7031
Q47.4062 39.5938 52.6562 34.2969
Q57.9062 29 57.9062 20.125
Q57.9062 9.51562 50.7969 4.04688
Q43.7031 -1.42188 29.9844 -1.42188
Q24.8125 -1.42188 18.9688 -0.25
Q13.1406 0.921875 6.89062 3.21875
L6.89062 13.375
Q12.8906 10.0156 18.6562 8.29688
Q24.4219 6.59375 29.9844 6.59375
Q38.4219 6.59375 43.0156 9.90625
Q47.6094 13.2344 47.6094 19.3906
Q47.6094 24.75 44.3125 27.7812
Q41.0156 30.8125 33.5 32.3281
L27.4844 33.5
Q16.4531 35.6875 11.5156 40.375
Q6.59375 45.0625 6.59375 53.4219
Q6.59375 63.0938 13.4062 68.6562
Q20.2188 74.2188 32.1719 74.2188
Q37.3125 74.2188 42.625 73.2812
Q47.9531 72.3594 53.5156 70.5156" id="BitstreamVeraSans-Roman-53"/>
      <path d="
M9.8125 72.9062
L24.5156 72.9062
L43.1094 23.2969
L61.8125 72.9062
L76.5156 72.9062
L76.5156 0
L66.8906 0
L66.8906 64.0156
L48.0938 14.0156
L38.1875 14.0156
L19.3906 64.0156
L19.3906 0
L9.8125 0
z
" id="BitstreamVeraSans-Roman-4d"/>
      <path d="
M10.5938 45.4062
L73.1875 45.4062
L73.1875 37.2031
L10.5938 37.2031
z

M10.5938 25.4844
L73.1875 25.4844
L73.1875 17.1875
L10.5938 17.1875
z
" id="BitstreamVeraSans-Roman-3d"/>
     </defs>
     <g transform="translate(208.21875 83.945625)scale(0.12 -0.12)">
      <use xlink:href="#BitstreamVeraSans-Roman-53"/>
      <use x="63.4765625" xlink:href="#BitstreamVeraSans-Roman-45"/>
      <use x="126.66015625" xlink:href="#BitstreamVeraSans-Roman-50"/>
      <use x="186.962890625" xlink:href="#BitstreamVeraSans-Roman-2c"/>
      <use x="218.75" xlink:href="#BitstreamVeraSans-Roman-20"/>
      <use x="250.537109375" xlink:href="#BitstreamVeraSans-Roman-4d"/>
      <use x="336.81640625" xlink:href="#BitstreamVeraSans-Roman-3d"/>
      <use x="420.60546875" xlink:href="#BitstreamVeraSans-Roman-31"/>
      <use x="484.228515625" xlink:href="#BitstreamVeraSans-Roman-30"/>
      <use x="547.8515625" xlink:href="#BitstreamVeraSans-Roman-30"/>
     </g>
    </g>
    <g id="line2d_80">
     <path d="
M178.219 97.3594
L195.019 97.3594" style="fill:none;stroke:#00bfbf;stroke-linecap:square;stroke-width:1.5;"/>
    </g>
    <g id="line2d_81"/>
    <g id="text_19">
     <!-- SEP, M=500 -->
     <g transform="translate(208.21875 101.559375)scale(0.12 -0.12)">
      <use xlink:href="#BitstreamVeraSans-Roman-53"/>
      <use x="63.4765625" xlink:href="#BitstreamVeraSans-Roman-45"/>
      <use x="126.66015625" xlink:href="#BitstreamVeraSans-Roman-50"/>
      <use x="186.962890625" xlink:href="#BitstreamVeraSans-Roman-2c"/>
      <use x="218.75" xlink:href="#BitstreamVeraSans-Roman-20"/>
      <use x="250.537109375" xlink:href="#BitstreamVeraSans-Roman-4d"/>
      <use x="336.81640625" xlink:href="#BitstreamVeraSans-Roman-3d"/>
      <use x="420.60546875" xlink:href="#BitstreamVeraSans-Roman-35"/>
      <use x="484.228515625" xlink:href="#BitstreamVeraSans-Roman-30"/>
      <use x="547.8515625" xlink:href="#BitstreamVeraSans-Roman-30"/>
     </g>
    </g>
    <g id="line2d_82">
     <path d="
M178.219 114.973
L195.019 114.973" style="fill:none;stroke:#bf00bf;stroke-linecap:square;stroke-width:1.5;"/>
    </g>
    <g id="line2d_83"/>
    <g id="text_20">
     <!-- DAEP, K=5 -->
     <g transform="translate(208.21875 119.173125)scale(0.12 -0.12)">
      <use xlink:href="#BitstreamVeraSans-Roman-44"/>
      <use x="75.251953125" xlink:href="#BitstreamVeraSans-Roman-41"/>
      <use x="143.66015625" xlink:href="#BitstreamVeraSans-Roman-45"/>
      <use x="206.84375" xlink:href="#BitstreamVeraSans-Roman-50"/>
      <use x="267.146484375" xlink:href="#BitstreamVeraSans-Roman-2c"/>
      <use x="298.93359375" xlink:href="#BitstreamVeraSans-Roman-20"/>
      <use x="330.720703125" xlink:href="#BitstreamVeraSans-Roman-4b"/>
      <use x="396.296875" xlink:href="#BitstreamVeraSans-Roman-3d"/>
      <use x="480.0859375" xlink:href="#BitstreamVeraSans-Roman-35"/>
     </g>
    </g>
    <g id="line2d_84">
     <path d="
M178.219 132.587
L195.019 132.587" style="fill:none;stroke:#bfbf00;stroke-linecap:square;stroke-width:1.5;"/>
    </g>
    <g id="line2d_85"/>
    <g id="text_21">
     <!-- DAEP, K=50 -->
     <g transform="translate(208.21875 136.786875)scale(0.12 -0.12)">
      <use xlink:href="#BitstreamVeraSans-Roman-44"/>
      <use x="75.251953125" xlink:href="#BitstreamVeraSans-Roman-41"/>
      <use x="143.66015625" xlink:href="#BitstreamVeraSans-Roman-45"/>
      <use x="206.84375" xlink:href="#BitstreamVeraSans-Roman-50"/>
      <use x="267.146484375" xlink:href="#BitstreamVeraSans-Roman-2c"/>
      <use x="298.93359375" xlink:href="#BitstreamVeraSans-Roman-20"/>
      <use x="330.720703125" xlink:href="#BitstreamVeraSans-Roman-4b"/>
      <use x="396.296875" xlink:href="#BitstreamVeraSans-Roman-3d"/>
      <use x="480.0859375" xlink:href="#BitstreamVeraSans-Roman-35"/>
      <use x="543.708984375" xlink:href="#BitstreamVeraSans-Roman-30"/>
     </g>
    </g>
   </g>
  </g>
 </g>
 <defs>
  <clipPath id="p0b22ea0cd0">
   <rect height="216.0" width="243.0" x="48.6" y="28.8"/>
  </clipPath>
 </defs>
</svg>
