<?xml version="1.0" encoding="utf-8" standalone="no"?>
<!DOCTYPE svg PUBLIC "-//W3C//DTD SVG 1.1//EN"
  "http://www.w3.org/Graphics/SVG/1.1/DTD/svg11.dtd">
<!-- Created with matplotlib (http://matplotlib.org/) -->
<svg height="288pt" version="1.1" viewBox="0 0 288 288" width="288pt" xmlns="http://www.w3.org/2000/svg" xmlns:xlink="http://www.w3.org/1999/xlink">
 <defs>
  <style type="text/css">
*{stroke-linecap:butt;stroke-linejoin:round;}
  </style>
 </defs>
 <g id="figure_1">
  <g id="axes_1">
   <g id="patch_1">
    <path d="
M43.2 244.8
L259.2 244.8
L259.2 28.8
L43.2 28.8
z
" style="fill:#ffffff;"/>
   </g>
   <g id="line2d_1">
    <path clip-path="url(#pa78772dfc1)" d="
M-1 62.8644
L46.5049 62.9579
L73.212 84.4867
L88.8347 96.7494
L99.9192 108.937
L108.517 119.027
L115.542 127.712
L121.481 133.73
L126.626 143.069
L131.165 149.155
L135.224 153.335
L138.896 157.346
L142.249 162.023
L145.333 169.019
L148.188 173.988
L150.847 182.391
L153.333 191.099
L155.669 199.998
L157.872 207.709
L161.931 229.094
L163.811 222.681
L165.604 215.868
L168.956 207.333
L170.529 206.225
L172.04 207.029
L173.494 205.138
L174.896 206.577
L176.248 204.208
L177.554 202.536
L180.041 198.667
L181.226 199.089
L182.376 197.578
L183.493 197.054
L184.579 196.706
L185.634 198.125
L186.662 197.213
L187.663 197.788
L188.638 197.896
L189.59 195.697
L190.518 194.302
L191.425 193.297
L192.311 191.88
L194.023 190.065
L194.852 188.108
L196.458 186.311
L197.236 185.927
L197.999 184.442
L199.481 183.442
L200.201 182.16
L200.908 181.532
L201.603 180.714
L202.285 180.575
L202.955 179.794
L204.261 178.862
L204.898 178.098
L205.524 177.784
L206.141 177.017
L206.748 176.667
L207.345 175.778
L207.933 175.546
L208.513 174.795
L209.646 172.625
L210.2 172.527
L212.859 169.954
L213.369 169.69
L213.873 169.693
L217.681 166.542
L218.132 166.445
L218.577 165.945
L219.018 165.847
L219.453 165.048
L220.309 165.034
L220.731 164.829
L221.147 164.188
L221.559 163.909
L221.967 163.484
L222.37 162.844
L222.77 162.826
L223.165 162.139
L223.556 162.153
L223.943 161.744
L224.327 161.748
L225.454 159.959
L225.823 159.962
L226.55 159.358
L227.264 159.164
L227.616 158.723
L227.964 158.091
L228.31 158.285
L229.328 157.831
L229.662 157.352
L229.993 157.145
L230.321 156.576
L230.968 156.408
L231.288 156.264
L231.605 155.786
L232.232 155.422
L232.541 155.166
L232.848 155.168
L233.153 154.975
L233.455 154.986
L234.052 154.337
L234.64 154.181
L235.22 153.235
L235.506 153.247
L236.073 152.903
L236.353 152.851
L236.631 152.57
L237.182 152.628
L237.454 152.599
L237.725 152.012
L237.993 152.089
L238.26 151.584
L238.788 151.472
L239.049 150.989
L239.308 150.992
L240.076 150.247
L240.58 150.096
L240.829 150.178
L241.077 149.978
L241.323 149.539
L241.811 149.478
L242.053 149.194
L242.293 149.111
L242.531 148.71
L242.768 148.547
L243.004 148.128
L243.471 148.046
L243.702 147.726
L243.933 147.757
L244.388 147.425
L245.063 147.265
L245.285 147.078
L245.505 147.115
L245.725 146.962
L246.16 147.183
L246.804 146.491
L247.017 146.535
L247.228 146.365
L247.438 146.393
L247.647 146.28
L247.854 145.99
L248.061 146.022
L248.266 145.838
L248.471 145.456
L248.876 145.584
L249.278 145.181
L249.477 145.227
L250.457 144.436
L250.457 144.436" style="fill:none;stroke:#0000ff;stroke-linecap:square;stroke-width:1.5;"/>
   </g>
   <g id="line2d_2">
    <path clip-path="url(#pa78772dfc1)" d="
M-1 62.8709
L43.2 62.9579
L69.9071 59.0923
L85.5298 63.2129
L96.6143 60.6028
L105.212 56.3472
L112.237 59.1476
L118.176 60.2577
L123.321 60.5484
L127.86 60.3204
L131.919 58.903
L135.592 57.336
L138.944 62.9507
L142.028 60.706
L144.884 58.1155
L150.029 59.9914
L152.364 60.1517
L154.567 55.5254
L156.65 55.37
L158.626 62.5768
L160.506 63.0855
L162.299 84.6426
L167.224 118.049
L168.735 126.18
L170.189 132.96
L171.591 141.658
L174.249 152.958
L175.512 156.369
L176.736 161.22
L177.921 168.361
L179.072 172.915
L180.188 179.725
L182.33 197.269
L184.358 216.428
L185.333 233.837
L186.285 233.653
L187.213 234.563
L188.12 234.755
L189.006 235.297
L189.872 236.263
L190.719 236.424
L191.547 237.382
L192.358 239.572
L193.153 238.921
L193.931 239.975
L194.694 241.535
L195.442 244.8
L197.604 241.068
L198.298 242.181
L198.98 238.715
L199.65 241.943
L200.309 241.209
L200.956 241.057
L201.593 239.381
L202.22 239.046
L202.836 238.444
L203.443 237.264
L204.04 237.376
L204.628 236.331
L205.208 236.755
L205.779 236.137
L206.341 236.32
L206.896 236.375
L207.442 237.028
L207.981 236.952
L208.512 237.017
L209.037 235.801
L209.554 235.416
L210.064 236.897
L210.568 236.38
L211.065 233.223
L211.556 236.411
L212.041 232.919
L212.519 234.725
L212.992 233.029
L213.459 232.764
L214.376 231.771
L214.827 231.285
L215.273 232.073
L215.713 230.258
L216.148 232.484
L216.579 231.939
L217.005 231.151
L217.426 231.127
L217.842 230.426
L218.254 232.825
L218.662 231.488
L219.065 232.124
L219.465 232.206
L219.86 230.469
L220.638 231.488
L221.022 229.83
L221.401 230.086
L221.777 230.534
L222.15 228.568
L222.518 229.611
L222.883 226.682
L223.604 226.277
L223.959 227.539
L224.311 226.167
L224.659 226.71
L225.005 226.985
L225.347 227.98
L225.687 226.365
L226.023 227.489
L226.357 226.694
L226.688 227.372
L227.016 226.085
L227.663 227.251
L228.3 225.447
L228.615 224.6
L228.927 225.181
L229.543 225.807
L229.848 225.733
L230.15 225.849
L230.45 226.542
L230.747 226.713
L231.043 226.241
L231.336 224.753
L231.626 226.784
L231.915 225.947
L232.201 225.831
L232.486 226.472
L233.048 225.028
L233.327 225.298
L233.877 227.744
L234.42 225.935
L234.688 226.079
L234.955 225.299
L235.22 225.818
L235.483 223.682
L235.744 225.209
L236.003 224.3
L236.261 225.118
L236.517 227.178
L236.771 225.445
L237.024 226.718
L237.275 226.08
L237.524 225.953
L237.772 224.754
L238.018 227.666
L238.263 225.739
L238.506 225.596
L238.988 227.626
L239.226 228.02
L239.463 227.456
L239.699 226.093
L239.933 227.103
L240.166 226.768
L240.398 226.759
L240.856 225.644
L241.084 227.615
L241.31 228.263
L241.534 227.534
L241.758 227.445
L241.98 227.157
L242.2 225.666
L242.42 226.983
L242.638 225.534
L242.855 225.242
L243.071 226.659
L243.286 225.616
L243.499 226.707
L243.923 227.103
L244.133 228.493
L244.342 225.97
L244.549 227.804
L244.756 228.129
L244.961 225.848
L245.166 225.535
L245.571 227.761
L245.773 228.443
L245.973 227.428
L246.172 228.152
L246.37 227.202
L246.567 228.888
L246.763 228.676
L247.152 226.612
L247.152 226.612" style="fill:none;stroke:#ff0000;stroke-linecap:square;stroke-width:1.5;"/>
   </g>
   <g id="line2d_3">
    <path clip-path="url(#pa78772dfc1)" d="
M157.268 60.0747
L184.433 243.048
L200.657 244.36
L212.008 237.221
L220.767 232.781
L227.919 232.03
L233.967 231.994
L239.195 231.848
L243.761 233.547
L247.941 233.651" style="fill:none;stroke:#008000;stroke-linecap:square;stroke-width:1.5;"/>
   </g>
   <g id="line2d_4">
    <path clip-path="url(#pa78772dfc1)" d="
M157.594 60.0747
L184.247 240.399
L200.143 242.635
L211.468 236.246
L220.343 232.29
L227.587 230.852
L233.745 230.878
L239.119 232.278
L243.812 234.779
L248.056 236.046" style="fill:none;stroke:#00bfbf;stroke-linecap:square;stroke-width:1.5;"/>
   </g>
   <g id="line2d_5">
    <path clip-path="url(#pa78772dfc1)" d="
M-1 60.3933
L43.9808 60.4776
L70.6879 81.9606
L86.3106 90.6125
L97.395 105.383
L105.993 118.399
L113.018 127.092
L124.102 137.019
L128.64 144.99
L132.7 151.361
L136.372 159.371
L139.725 161.592
L142.809 167.504
L145.664 166.343
L148.323 167.503
L150.809 174.013
L153.145 182.299
L155.348 191.416
L157.431 194.278
L159.407 198.553
L161.287 195.035
L163.079 187.213
L164.792 185.214
L166.432 182.894
L168.005 184.288
L169.516 190.289
L170.97 193.236
L172.371 189.947
L173.724 192.579
L175.03 190.352
L176.293 189.224
L177.516 192.982
L178.702 199.647
L179.852 200.593
L180.969 205.922
L182.055 207.784
L183.11 212.13
L184.138 212.928
L185.139 214.71
L186.114 221.336
L187.066 208.147
L187.994 206.294
L188.901 205.879
L189.787 201.962
L190.652 204.506
L191.499 202.519
L192.328 206.763
L193.139 205.933
L194.712 196.875
L195.475 196.709
L196.223 198.9
L196.957 199.954
L197.677 203.538
L198.384 205.487
L199.079 209.568
L199.761 207.141
L200.431 211.765
L201.089 213.714
L201.737 216.838
L203 208.339
L203.617 208.256
L204.224 205.812
L204.821 205.457
L205.409 204.705
L205.989 202.362
L206.559 203.47
L207.122 202.501
L207.676 204.478
L208.223 205.074
L208.762 204.582
L209.293 206.216
L209.817 208.715
L210.335 210.294
L210.845 210.4
L211.349 212.332
L211.846 214.821
L212.337 219.344
L212.821 221.535
L213.773 208.515
L214.24 207.462
L214.701 205.547
L215.157 201.181
L215.608 204.923
L216.494 203.469
L216.929 200.869
L217.36 202.33
L217.785 207.531
L218.206 210.032
L218.623 210.019
L219.035 209.683
L219.443 215.995
L219.846 215.446
L220.246 219.644
L220.641 217.166
L221.032 218.799
L221.419 164.838
L221.803 212.54
L222.182 213.462
L222.558 212.196
L222.93 210.149
L223.299 207.327
L223.664 207.762
L224.026 204.908
L224.384 207.261
L224.74 203.732
L225.091 209.862
L225.44 209.8
L225.786 212.301
L226.128 213.845
L226.468 213.542
L226.804 218.331
L227.138 214.785
L227.469 218.36
L227.796 223.371
L228.122 223.622
L228.444 171.606
L228.764 218.971
L229.395 211.017
L229.707 208.684
L230.017 209.094
L230.324 211.971
L230.629 208.946
L230.931 211.294
L231.231 209.478
L231.823 214.107
L232.116 212.176
L232.407 213.98
L232.696 214.614
L232.982 213.662
L233.267 213.111
L233.549 217.273
L233.829 216.057
L234.383 223.569
L234.658 219.608
L234.93 213.806
L235.2 212.192
L235.469 212.915
L235.736 209.687
L236 211.973
L236.263 209.741
L236.525 211.891
L236.784 210.713
L237.042 214.551
L237.298 211.265
L237.552 210.288
L237.805 212.155
L238.056 208.938
L238.305 211.855
L238.799 218.964
L239.044 219.705
L239.287 222.182
L239.528 146.084
L239.769 217.344
L240.007 212.893
L240.244 213.86
L240.48 210.466
L240.714 210.8
L240.947 210.49
L241.178 210.694
L241.637 212.958
L241.864 215.08
L242.09 215.363
L242.315 213.039
L242.76 217.599
L242.981 214.555
L243.419 218.437
L243.852 228.048
L244.067 229.636
L244.28 220.707
L244.492 219.549
L244.704 215.567
L244.914 216.585
L245.122 214.457
L245.33 214.507
L245.537 215.69
L245.742 214.373
L246.15 217.745
L246.352 215.139
L246.754 221.201
L247.151 217.418
L247.348 220.918
L247.544 219.89
L247.739 224.256
L247.933 224.019
L247.933 224.019" style="fill:none;stroke:#bf00bf;stroke-linecap:square;stroke-width:1.5;"/>
   </g>
   <g id="patch_2">
    <path d="
M43.2 244.8
L259.2 244.8" style="fill:none;stroke:#000000;stroke-linecap:square;stroke-linejoin:miter;"/>
   </g>
   <g id="patch_3">
    <path d="
M43.2 244.8
L43.2 28.8" style="fill:none;stroke:#000000;stroke-linecap:square;stroke-linejoin:miter;"/>
   </g>
   <g id="matplotlib.axis_1">
    <g id="xtick_1">
     <g id="line2d_6">
      <defs>
       <path d="
M0 0
L0 -4" id="m93b0483c22" style="stroke:#000000;stroke-width:0.5;"/>
      </defs>
      <g>
       <use style="stroke:#000000;stroke-width:0.5;" x="128.151011433" xlink:href="#m93b0483c22" y="244.8"/>
      </g>
     </g>
     <g id="text_1">
      <!-- $\mathdefault{10^{2}}$ -->
      <defs>
       <path d="
M19.1875 8.29688
L53.6094 8.29688
L53.6094 0
L7.32812 0
L7.32812 8.29688
Q12.9375 14.1094 22.625 23.8906
Q32.3281 33.6875 34.8125 36.5312
Q39.5469 41.8438 41.4219 45.5312
Q43.3125 49.2188 43.3125 52.7812
Q43.3125 58.5938 39.2344 62.25
Q35.1562 65.9219 28.6094 65.9219
Q23.9688 65.9219 18.8125 64.3125
Q13.6719 62.7031 7.8125 59.4219
L7.8125 69.3906
Q13.7656 71.7812 18.9375 73
Q24.125 74.2188 28.4219 74.2188
Q39.75 74.2188 46.4844 68.5469
Q53.2188 62.8906 53.2188 53.4219
Q53.2188 48.9219 51.5312 44.8906
Q49.8594 40.875 45.4062 35.4062
Q44.1875 33.9844 37.6406 27.2188
Q31.1094 20.4531 19.1875 8.29688" id="BitstreamVeraSans-Roman-32"/>
       <path d="
M31.7812 66.4062
Q24.1719 66.4062 20.3281 58.9062
Q16.5 51.4219 16.5 36.375
Q16.5 21.3906 20.3281 13.8906
Q24.1719 6.39062 31.7812 6.39062
Q39.4531 6.39062 43.2812 13.8906
Q47.125 21.3906 47.125 36.375
Q47.125 51.4219 43.2812 58.9062
Q39.4531 66.4062 31.7812 66.4062
M31.7812 74.2188
Q44.0469 74.2188 50.5156 64.5156
Q56.9844 54.8281 56.9844 36.375
Q56.9844 17.9688 50.5156 8.26562
Q44.0469 -1.42188 31.7812 -1.42188
Q19.5312 -1.42188 13.0625 8.26562
Q6.59375 17.9688 6.59375 36.375
Q6.59375 54.8281 13.0625 64.5156
Q19.5312 74.2188 31.7812 74.2188" id="BitstreamVeraSans-Roman-30"/>
       <path d="
M12.4062 8.29688
L28.5156 8.29688
L28.5156 63.9219
L10.9844 60.4062
L10.9844 69.3906
L28.4219 72.9062
L38.2812 72.9062
L38.2812 8.29688
L54.3906 8.29688
L54.3906 0
L12.4062 0
z
" id="BitstreamVeraSans-Roman-31"/>
      </defs>
      <g transform="translate(116.571011433 259.144375)scale(0.12 -0.12)">
       <use transform="translate(0.0 0.546875)" xlink:href="#BitstreamVeraSans-Roman-31"/>
       <use transform="translate(63.623046875 0.546875)" xlink:href="#BitstreamVeraSans-Roman-30"/>
       <use transform="translate(127.24609375 53.046875)scale(0.7)" xlink:href="#BitstreamVeraSans-Roman-32"/>
      </g>
     </g>
    </g>
    <g id="xtick_2">
     <g id="line2d_7">
      <g>
       <use style="stroke:#000000;stroke-width:0.5;" x="216.870192847" xlink:href="#m93b0483c22" y="244.8"/>
      </g>
     </g>
     <g id="text_2">
      <!-- $\mathdefault{10^{3}}$ -->
      <defs>
       <path d="
M40.5781 39.3125
Q47.6562 37.7969 51.625 33
Q55.6094 28.2188 55.6094 21.1875
Q55.6094 10.4062 48.1875 4.48438
Q40.7656 -1.42188 27.0938 -1.42188
Q22.5156 -1.42188 17.6562 -0.515625
Q12.7969 0.390625 7.625 2.20312
L7.625 11.7188
Q11.7188 9.32812 16.5938 8.10938
Q21.4844 6.89062 26.8125 6.89062
Q36.0781 6.89062 40.9375 10.5469
Q45.7969 14.2031 45.7969 21.1875
Q45.7969 27.6406 41.2812 31.2656
Q36.7656 34.9062 28.7188 34.9062
L20.2188 34.9062
L20.2188 43.0156
L29.1094 43.0156
Q36.375 43.0156 40.2344 45.9219
Q44.0938 48.8281 44.0938 54.2969
Q44.0938 59.9062 40.1094 62.9062
Q36.1406 65.9219 28.7188 65.9219
Q24.6562 65.9219 20.0156 65.0312
Q15.375 64.1562 9.8125 62.3125
L9.8125 71.0938
Q15.4375 72.6562 20.3438 73.4375
Q25.25 74.2188 29.5938 74.2188
Q40.8281 74.2188 47.3594 69.1094
Q53.9062 64.0156 53.9062 55.3281
Q53.9062 49.2656 50.4375 45.0938
Q46.9688 40.9219 40.5781 39.3125" id="BitstreamVeraSans-Roman-33"/>
      </defs>
      <g transform="translate(205.290192847 259.144375)scale(0.12 -0.12)">
       <use transform="translate(0.0 0.546875)" xlink:href="#BitstreamVeraSans-Roman-31"/>
       <use transform="translate(63.623046875 0.546875)" xlink:href="#BitstreamVeraSans-Roman-30"/>
       <use transform="translate(127.24609375 53.046875)scale(0.7)" xlink:href="#BitstreamVeraSans-Roman-33"/>
      </g>
     </g>
    </g>
    <g id="xtick_3">
     <g id="line2d_8">
      <defs>
       <path d="
M0 0
L0 -2" id="m177f7580d0" style="stroke:#000000;stroke-width:0.5;"/>
      </defs>
      <g>
       <use style="stroke:#000000;stroke-width:0.5;" x="66.1389648165" xlink:href="#m177f7580d0" y="244.8"/>
      </g>
     </g>
    </g>
    <g id="xtick_4">
     <g id="line2d_9">
      <g>
       <use style="stroke:#000000;stroke-width:0.5;" x="81.7616371739" xlink:href="#m177f7580d0" y="244.8"/>
      </g>
     </g>
    </g>
    <g id="xtick_5">
     <g id="line2d_10">
      <g>
       <use style="stroke:#000000;stroke-width:0.5;" x="92.8460996126" xlink:href="#m177f7580d0" y="244.8"/>
      </g>
     </g>
    </g>
    <g id="xtick_6">
     <g id="line2d_11">
      <g>
       <use style="stroke:#000000;stroke-width:0.5;" x="101.443876637" xlink:href="#m177f7580d0" y="244.8"/>
      </g>
     </g>
    </g>
    <g id="xtick_7">
     <g id="line2d_12">
      <g>
       <use style="stroke:#000000;stroke-width:0.5;" x="108.46877197" xlink:href="#m177f7580d0" y="244.8"/>
      </g>
     </g>
    </g>
    <g id="xtick_8">
     <g id="line2d_13">
      <g>
       <use style="stroke:#000000;stroke-width:0.5;" x="114.408236344" xlink:href="#m177f7580d0" y="244.8"/>
      </g>
     </g>
    </g>
    <g id="xtick_9">
     <g id="line2d_14">
      <g>
       <use style="stroke:#000000;stroke-width:0.5;" x="119.553234409" xlink:href="#m177f7580d0" y="244.8"/>
      </g>
     </g>
    </g>
    <g id="xtick_10">
     <g id="line2d_15">
      <g>
       <use style="stroke:#000000;stroke-width:0.5;" x="124.091444327" xlink:href="#m177f7580d0" y="244.8"/>
      </g>
     </g>
    </g>
    <g id="xtick_11">
     <g id="line2d_16">
      <g>
       <use style="stroke:#000000;stroke-width:0.5;" x="154.85814623" xlink:href="#m177f7580d0" y="244.8"/>
      </g>
     </g>
    </g>
    <g id="xtick_12">
     <g id="line2d_17">
      <g>
       <use style="stroke:#000000;stroke-width:0.5;" x="170.480818587" xlink:href="#m177f7580d0" y="244.8"/>
      </g>
     </g>
    </g>
    <g id="xtick_13">
     <g id="line2d_18">
      <g>
       <use style="stroke:#000000;stroke-width:0.5;" x="181.565281026" xlink:href="#m177f7580d0" y="244.8"/>
      </g>
     </g>
    </g>
    <g id="xtick_14">
     <g id="line2d_19">
      <g>
       <use style="stroke:#000000;stroke-width:0.5;" x="190.16305805" xlink:href="#m177f7580d0" y="244.8"/>
      </g>
     </g>
    </g>
    <g id="xtick_15">
     <g id="line2d_20">
      <g>
       <use style="stroke:#000000;stroke-width:0.5;" x="197.187953383" xlink:href="#m177f7580d0" y="244.8"/>
      </g>
     </g>
    </g>
    <g id="xtick_16">
     <g id="line2d_21">
      <g>
       <use style="stroke:#000000;stroke-width:0.5;" x="203.127417757" xlink:href="#m177f7580d0" y="244.8"/>
      </g>
     </g>
    </g>
    <g id="xtick_17">
     <g id="line2d_22">
      <g>
       <use style="stroke:#000000;stroke-width:0.5;" x="208.272415822" xlink:href="#m177f7580d0" y="244.8"/>
      </g>
     </g>
    </g>
    <g id="xtick_18">
     <g id="line2d_23">
      <g>
       <use style="stroke:#000000;stroke-width:0.5;" x="212.81062574" xlink:href="#m177f7580d0" y="244.8"/>
      </g>
     </g>
    </g>
    <g id="xtick_19">
     <g id="line2d_24">
      <g>
       <use style="stroke:#000000;stroke-width:0.5;" x="243.577327643" xlink:href="#m177f7580d0" y="244.8"/>
      </g>
     </g>
    </g>
    <g id="xtick_20">
     <g id="line2d_25">
      <g>
       <use style="stroke:#000000;stroke-width:0.5;" x="259.2" xlink:href="#m177f7580d0" y="244.8"/>
      </g>
     </g>
    </g>
    <g id="text_3">
     <!-- time (s) -->
     <defs>
      <path id="BitstreamVeraSans-Roman-20"/>
      <path d="
M8.01562 75.875
L15.8281 75.875
Q23.1406 64.3594 26.7812 53.3125
Q30.4219 42.2812 30.4219 31.3906
Q30.4219 20.4531 26.7812 9.375
Q23.1406 -1.70312 15.8281 -13.1875
L8.01562 -13.1875
Q14.5 -2 17.7031 9.0625
Q20.9062 20.125 20.9062 31.3906
Q20.9062 42.6719 17.7031 53.6562
Q14.5 64.6562 8.01562 75.875" id="BitstreamVeraSans-Roman-29"/>
      <path d="
M52 44.1875
Q55.375 50.25 60.0625 53.125
Q64.75 56 71.0938 56
Q79.6406 56 84.2812 50.0156
Q88.9219 44.0469 88.9219 33.0156
L88.9219 0
L79.8906 0
L79.8906 32.7188
Q79.8906 40.5781 77.0938 44.375
Q74.3125 48.1875 68.6094 48.1875
Q61.625 48.1875 57.5625 43.5469
Q53.5156 38.9219 53.5156 30.9062
L53.5156 0
L44.4844 0
L44.4844 32.7188
Q44.4844 40.625 41.7031 44.4062
Q38.9219 48.1875 33.1094 48.1875
Q26.2188 48.1875 22.1562 43.5312
Q18.1094 38.875 18.1094 30.9062
L18.1094 0
L9.07812 0
L9.07812 54.6875
L18.1094 54.6875
L18.1094 46.1875
Q21.1875 51.2188 25.4844 53.6094
Q29.7812 56 35.6875 56
Q41.6562 56 45.8281 52.9688
Q50 49.9531 52 44.1875" id="BitstreamVeraSans-Roman-6d"/>
      <path d="
M9.42188 54.6875
L18.4062 54.6875
L18.4062 0
L9.42188 0
z

M9.42188 75.9844
L18.4062 75.9844
L18.4062 64.5938
L9.42188 64.5938
z
" id="BitstreamVeraSans-Roman-69"/>
      <path d="
M31 75.875
Q24.4688 64.6562 21.2812 53.6562
Q18.1094 42.6719 18.1094 31.3906
Q18.1094 20.125 21.3125 9.0625
Q24.5156 -2 31 -13.1875
L23.1875 -13.1875
Q15.875 -1.70312 12.2344 9.375
Q8.59375 20.4531 8.59375 31.3906
Q8.59375 42.2812 12.2031 53.3125
Q15.8281 64.3594 23.1875 75.875
z
" id="BitstreamVeraSans-Roman-28"/>
      <path d="
M56.2031 29.5938
L56.2031 25.2031
L14.8906 25.2031
Q15.4844 15.9219 20.4844 11.0625
Q25.4844 6.20312 34.4219 6.20312
Q39.5938 6.20312 44.4531 7.46875
Q49.3125 8.73438 54.1094 11.2812
L54.1094 2.78125
Q49.2656 0.734375 44.1875 -0.34375
Q39.1094 -1.42188 33.8906 -1.42188
Q20.7969 -1.42188 13.1562 6.1875
Q5.51562 13.8125 5.51562 26.8125
Q5.51562 40.2344 12.7656 48.1094
Q20.0156 56 32.3281 56
Q43.3594 56 49.7812 48.8906
Q56.2031 41.7969 56.2031 29.5938
M47.2188 32.2344
Q47.125 39.5938 43.0938 43.9844
Q39.0625 48.3906 32.4219 48.3906
Q24.9062 48.3906 20.3906 44.1406
Q15.875 39.8906 15.1875 32.1719
z
" id="BitstreamVeraSans-Roman-65"/>
      <path d="
M18.3125 70.2188
L18.3125 54.6875
L36.8125 54.6875
L36.8125 47.7031
L18.3125 47.7031
L18.3125 18.0156
Q18.3125 11.3281 20.1406 9.42188
Q21.9688 7.51562 27.5938 7.51562
L36.8125 7.51562
L36.8125 0
L27.5938 0
Q17.1875 0 13.2344 3.875
Q9.28125 7.76562 9.28125 18.0156
L9.28125 47.7031
L2.6875 47.7031
L2.6875 54.6875
L9.28125 54.6875
L9.28125 70.2188
z
" id="BitstreamVeraSans-Roman-74"/>
      <path d="
M44.2812 53.0781
L44.2812 44.5781
Q40.4844 46.5312 36.375 47.5
Q32.2812 48.4844 27.875 48.4844
Q21.1875 48.4844 17.8438 46.4375
Q14.5 44.3906 14.5 40.2812
Q14.5 37.1562 16.8906 35.375
Q19.2812 33.5938 26.5156 31.9844
L29.5938 31.2969
Q39.1562 29.25 43.1875 25.5156
Q47.2188 21.7812 47.2188 15.0938
Q47.2188 7.46875 41.1875 3.01562
Q35.1562 -1.42188 24.6094 -1.42188
Q20.2188 -1.42188 15.4531 -0.5625
Q10.6875 0.296875 5.42188 2
L5.42188 11.2812
Q10.4062 8.6875 15.2344 7.39062
Q20.0625 6.10938 24.8125 6.10938
Q31.1562 6.10938 34.5625 8.28125
Q37.9844 10.4531 37.9844 14.4062
Q37.9844 18.0625 35.5156 20.0156
Q33.0625 21.9688 24.7031 23.7812
L21.5781 24.5156
Q13.2344 26.2656 9.51562 29.9062
Q5.8125 33.5469 5.8125 39.8906
Q5.8125 47.6094 11.2812 51.7969
Q16.75 56 26.8125 56
Q31.7812 56 36.1719 55.2656
Q40.5781 54.5469 44.2812 53.0781" id="BitstreamVeraSans-Roman-73"/>
     </defs>
     <g transform="translate(128.4459375 275.758125)scale(0.12 -0.12)">
      <use xlink:href="#BitstreamVeraSans-Roman-74"/>
      <use x="39.208984375" xlink:href="#BitstreamVeraSans-Roman-69"/>
      <use x="66.9921875" xlink:href="#BitstreamVeraSans-Roman-6d"/>
      <use x="164.404296875" xlink:href="#BitstreamVeraSans-Roman-65"/>
      <use x="225.927734375" xlink:href="#BitstreamVeraSans-Roman-20"/>
      <use x="257.71484375" xlink:href="#BitstreamVeraSans-Roman-28"/>
      <use x="296.728515625" xlink:href="#BitstreamVeraSans-Roman-73"/>
      <use x="348.828125" xlink:href="#BitstreamVeraSans-Roman-29"/>
     </g>
    </g>
   </g>
   <g id="matplotlib.axis_2">
    <g id="ytick_1">
     <g id="line2d_26">
      <defs>
       <path d="
M0 0
L4 0" id="m728421d6d4" style="stroke:#000000;stroke-width:0.5;"/>
      </defs>
      <g>
       <use style="stroke:#000000;stroke-width:0.5;" x="43.2" xlink:href="#m728421d6d4" y="235.741184291"/>
      </g>
     </g>
     <g id="text_4">
      <!-- $\mathdefault{10^{0}}$ -->
      <g transform="translate(16.04 239.665559291)scale(0.12 -0.12)">
       <use transform="translate(0.0 0.546875)" xlink:href="#BitstreamVeraSans-Roman-31"/>
       <use transform="translate(63.623046875 0.546875)" xlink:href="#BitstreamVeraSans-Roman-30"/>
       <use transform="translate(127.24609375 53.046875)scale(0.7)" xlink:href="#BitstreamVeraSans-Roman-30"/>
      </g>
     </g>
    </g>
    <g id="ytick_2">
     <g id="line2d_27">
      <g>
       <use style="stroke:#000000;stroke-width:0.5;" x="43.2" xlink:href="#m728421d6d4" y="166.760789528"/>
      </g>
     </g>
     <g id="text_5">
      <!-- $\mathdefault{10^{1}}$ -->
      <g transform="translate(16.04 170.625164528)scale(0.12 -0.12)">
       <use transform="translate(0.0 0.465625)" xlink:href="#BitstreamVeraSans-Roman-31"/>
       <use transform="translate(63.623046875 0.465625)" xlink:href="#BitstreamVeraSans-Roman-30"/>
       <use transform="translate(127.24609375 52.965625)scale(0.7)" xlink:href="#BitstreamVeraSans-Roman-31"/>
      </g>
     </g>
    </g>
    <g id="ytick_3">
     <g id="line2d_28">
      <g>
       <use style="stroke:#000000;stroke-width:0.5;" x="43.2" xlink:href="#m728421d6d4" y="97.7803947638"/>
      </g>
     </g>
     <g id="text_6">
      <!-- $\mathdefault{10^{2}}$ -->
      <g transform="translate(16.04 101.704769764)scale(0.12 -0.12)">
       <use transform="translate(0.0 0.546875)" xlink:href="#BitstreamVeraSans-Roman-31"/>
       <use transform="translate(63.623046875 0.546875)" xlink:href="#BitstreamVeraSans-Roman-30"/>
       <use transform="translate(127.24609375 53.046875)scale(0.7)" xlink:href="#BitstreamVeraSans-Roman-32"/>
      </g>
     </g>
    </g>
    <g id="ytick_4">
     <g id="line2d_29">
      <g>
       <use style="stroke:#000000;stroke-width:0.5;" x="43.2" xlink:href="#m728421d6d4" y="28.8"/>
      </g>
     </g>
     <g id="text_7">
      <!-- $\mathdefault{10^{3}}$ -->
      <g transform="translate(16.04 32.724375)scale(0.12 -0.12)">
       <use transform="translate(0.0 0.546875)" xlink:href="#BitstreamVeraSans-Roman-31"/>
       <use transform="translate(63.623046875 0.546875)" xlink:href="#BitstreamVeraSans-Roman-30"/>
       <use transform="translate(127.24609375 53.046875)scale(0.7)" xlink:href="#BitstreamVeraSans-Roman-33"/>
      </g>
     </g>
    </g>
    <g id="ytick_5">
     <g id="line2d_30">
      <defs>
       <path d="
M0 0
L2 0" id="mf0c55a9a47" style="stroke:#000000;stroke-width:0.5;"/>
      </defs>
      <g>
       <use style="stroke:#000000;stroke-width:0.5;" x="43.2" xlink:href="#mf0c55a9a47" y="242.426075245"/>
      </g>
     </g>
    </g>
    <g id="ytick_6">
     <g id="line2d_31">
      <g>
       <use style="stroke:#000000;stroke-width:0.5;" x="43.2" xlink:href="#mf0c55a9a47" y="238.897554054"/>
      </g>
     </g>
    </g>
    <g id="ytick_7">
     <g id="line2d_32">
      <g>
       <use style="stroke:#000000;stroke-width:0.5;" x="43.2" xlink:href="#mf0c55a9a47" y="214.976016355"/>
      </g>
     </g>
    </g>
    <g id="ytick_8">
     <g id="line2d_33">
      <g>
       <use style="stroke:#000000;stroke-width:0.5;" x="43.2" xlink:href="#mf0c55a9a47" y="202.829171791"/>
      </g>
     </g>
    </g>
    <g id="ytick_9">
     <g id="line2d_34">
      <g>
       <use style="stroke:#000000;stroke-width:0.5;" x="43.2" xlink:href="#mf0c55a9a47" y="194.210848418"/>
      </g>
     </g>
    </g>
    <g id="ytick_10">
     <g id="line2d_35">
      <g>
       <use style="stroke:#000000;stroke-width:0.5;" x="43.2" xlink:href="#mf0c55a9a47" y="187.525957464"/>
      </g>
     </g>
    </g>
    <g id="ytick_11">
     <g id="line2d_36">
      <g>
       <use style="stroke:#000000;stroke-width:0.5;" x="43.2" xlink:href="#mf0c55a9a47" y="182.064003854"/>
      </g>
     </g>
    </g>
    <g id="ytick_12">
     <g id="line2d_37">
      <g>
       <use style="stroke:#000000;stroke-width:0.5;" x="43.2" xlink:href="#mf0c55a9a47" y="177.445987877"/>
      </g>
     </g>
    </g>
    <g id="ytick_13">
     <g id="line2d_38">
      <g>
       <use style="stroke:#000000;stroke-width:0.5;" x="43.2" xlink:href="#mf0c55a9a47" y="173.445680481"/>
      </g>
     </g>
    </g>
    <g id="ytick_14">
     <g id="line2d_39">
      <g>
       <use style="stroke:#000000;stroke-width:0.5;" x="43.2" xlink:href="#mf0c55a9a47" y="169.91715929"/>
      </g>
     </g>
    </g>
    <g id="ytick_15">
     <g id="line2d_40">
      <g>
       <use style="stroke:#000000;stroke-width:0.5;" x="43.2" xlink:href="#mf0c55a9a47" y="145.995621591"/>
      </g>
     </g>
    </g>
    <g id="ytick_16">
     <g id="line2d_41">
      <g>
       <use style="stroke:#000000;stroke-width:0.5;" x="43.2" xlink:href="#mf0c55a9a47" y="133.848777027"/>
      </g>
     </g>
    </g>
    <g id="ytick_17">
     <g id="line2d_42">
      <g>
       <use style="stroke:#000000;stroke-width:0.5;" x="43.2" xlink:href="#mf0c55a9a47" y="125.230453654"/>
      </g>
     </g>
    </g>
    <g id="ytick_18">
     <g id="line2d_43">
      <g>
       <use style="stroke:#000000;stroke-width:0.5;" x="43.2" xlink:href="#mf0c55a9a47" y="118.5455627"/>
      </g>
     </g>
    </g>
    <g id="ytick_19">
     <g id="line2d_44">
      <g>
       <use style="stroke:#000000;stroke-width:0.5;" x="43.2" xlink:href="#mf0c55a9a47" y="113.08360909"/>
      </g>
     </g>
    </g>
    <g id="ytick_20">
     <g id="line2d_45">
      <g>
       <use style="stroke:#000000;stroke-width:0.5;" x="43.2" xlink:href="#mf0c55a9a47" y="108.465593113"/>
      </g>
     </g>
    </g>
    <g id="ytick_21">
     <g id="line2d_46">
      <g>
       <use style="stroke:#000000;stroke-width:0.5;" x="43.2" xlink:href="#mf0c55a9a47" y="104.465285718"/>
      </g>
     </g>
    </g>
    <g id="ytick_22">
     <g id="line2d_47">
      <g>
       <use style="stroke:#000000;stroke-width:0.5;" x="43.2" xlink:href="#mf0c55a9a47" y="100.936764526"/>
      </g>
     </g>
    </g>
    <g id="ytick_23">
     <g id="line2d_48">
      <g>
       <use style="stroke:#000000;stroke-width:0.5;" x="43.2" xlink:href="#mf0c55a9a47" y="77.0152268271"/>
      </g>
     </g>
    </g>
    <g id="ytick_24">
     <g id="line2d_49">
      <g>
       <use style="stroke:#000000;stroke-width:0.5;" x="43.2" xlink:href="#mf0c55a9a47" y="64.868382263"/>
      </g>
     </g>
    </g>
    <g id="ytick_25">
     <g id="line2d_50">
      <g>
       <use style="stroke:#000000;stroke-width:0.5;" x="43.2" xlink:href="#mf0c55a9a47" y="56.2500588905"/>
      </g>
     </g>
    </g>
    <g id="ytick_26">
     <g id="line2d_51">
      <g>
       <use style="stroke:#000000;stroke-width:0.5;" x="43.2" xlink:href="#mf0c55a9a47" y="49.5651679366"/>
      </g>
     </g>
    </g>
    <g id="ytick_27">
     <g id="line2d_52">
      <g>
       <use style="stroke:#000000;stroke-width:0.5;" x="43.2" xlink:href="#mf0c55a9a47" y="44.1032143264"/>
      </g>
     </g>
    </g>
    <g id="ytick_28">
     <g id="line2d_53">
      <g>
       <use style="stroke:#000000;stroke-width:0.5;" x="43.2" xlink:href="#mf0c55a9a47" y="39.4851983495"/>
      </g>
     </g>
    </g>
    <g id="ytick_29">
     <g id="line2d_54">
      <g>
       <use style="stroke:#000000;stroke-width:0.5;" x="43.2" xlink:href="#mf0c55a9a47" y="35.4848909539"/>
      </g>
     </g>
    </g>
    <g id="ytick_30">
     <g id="line2d_55">
      <g>
       <use style="stroke:#000000;stroke-width:0.5;" x="43.2" xlink:href="#mf0c55a9a47" y="31.9563697623"/>
      </g>
     </g>
    </g>
   </g>
   <g id="legend_1">
    <g id="line2d_56">
     <path d="
M194.841 44.5181
L211.641 44.5181" style="fill:none;stroke:#0000ff;stroke-linecap:square;stroke-width:1.5;"/>
    </g>
    <g id="line2d_57"/>
    <g id="text_8">
     <!-- ADF -->
     <defs>
      <path d="
M9.8125 72.9062
L51.7031 72.9062
L51.7031 64.5938
L19.6719 64.5938
L19.6719 43.1094
L48.5781 43.1094
L48.5781 34.8125
L19.6719 34.8125
L19.6719 0
L9.8125 0
z
" id="BitstreamVeraSans-Roman-46"/>
      <path d="
M19.6719 64.7969
L19.6719 8.10938
L31.5938 8.10938
Q46.6875 8.10938 53.6875 14.9375
Q60.6875 21.7812 60.6875 36.5312
Q60.6875 51.1719 53.6875 57.9844
Q46.6875 64.7969 31.5938 64.7969
z

M9.8125 72.9062
L30.0781 72.9062
Q51.2656 72.9062 61.1719 64.0938
Q71.0938 55.2812 71.0938 36.5312
Q71.0938 17.6719 61.125 8.82812
Q51.1719 0 30.0781 0
L9.8125 0
z
" id="BitstreamVeraSans-Roman-44"/>
      <path d="
M34.1875 63.1875
L20.7969 26.9062
L47.6094 26.9062
z

M28.6094 72.9062
L39.7969 72.9062
L67.5781 0
L57.3281 0
L50.6875 18.7031
L17.8281 18.7031
L11.1875 0
L0.78125 0
z
" id="BitstreamVeraSans-Roman-41"/>
     </defs>
     <g transform="translate(224.840625 48.718125)scale(0.12 -0.12)">
      <use xlink:href="#BitstreamVeraSans-Roman-41"/>
      <use x="68.408203125" xlink:href="#BitstreamVeraSans-Roman-44"/>
      <use x="145.41015625" xlink:href="#BitstreamVeraSans-Roman-46"/>
     </g>
    </g>
    <g id="line2d_58">
     <path d="
M194.841 62.1319
L211.641 62.1319" style="fill:none;stroke:#ff0000;stroke-linecap:square;stroke-width:1.5;"/>
    </g>
    <g id="line2d_59"/>
    <g id="text_9">
     <!-- EP -->
     <defs>
      <path d="
M19.6719 64.7969
L19.6719 37.4062
L32.0781 37.4062
Q38.9688 37.4062 42.7188 40.9688
Q46.4844 44.5312 46.4844 51.125
Q46.4844 57.6719 42.7188 61.2344
Q38.9688 64.7969 32.0781 64.7969
z

M9.8125 72.9062
L32.0781 72.9062
Q44.3438 72.9062 50.6094 67.3594
Q56.8906 61.8125 56.8906 51.125
Q56.8906 40.3281 50.6094 34.8125
Q44.3438 29.2969 32.0781 29.2969
L19.6719 29.2969
L19.6719 0
L9.8125 0
z
" id="BitstreamVeraSans-Roman-50"/>
      <path d="
M9.8125 72.9062
L55.9062 72.9062
L55.9062 64.5938
L19.6719 64.5938
L19.6719 43.0156
L54.3906 43.0156
L54.3906 34.7188
L19.6719 34.7188
L19.6719 8.29688
L56.7812 8.29688
L56.7812 0
L9.8125 0
z
" id="BitstreamVeraSans-Roman-45"/>
     </defs>
     <g transform="translate(224.840625 66.331875)scale(0.12 -0.12)">
      <use xlink:href="#BitstreamVeraSans-Roman-45"/>
      <use x="63.18359375" xlink:href="#BitstreamVeraSans-Roman-50"/>
     </g>
    </g>
    <g id="line2d_60">
     <path d="
M194.841 79.7456
L211.641 79.7456" style="fill:none;stroke:#008000;stroke-linecap:square;stroke-width:1.5;"/>
    </g>
    <g id="line2d_61"/>
    <g id="text_10">
     <!-- DEP -->
     <g transform="translate(224.840625 83.945625)scale(0.12 -0.12)">
      <use xlink:href="#BitstreamVeraSans-Roman-44"/>
      <use x="77.001953125" xlink:href="#BitstreamVeraSans-Roman-45"/>
      <use x="140.185546875" xlink:href="#BitstreamVeraSans-Roman-50"/>
     </g>
    </g>
    <g id="line2d_62">
     <path d="
M194.841 97.3594
L211.641 97.3594" style="fill:none;stroke:#00bfbf;stroke-linecap:square;stroke-width:1.5;"/>
    </g>
    <g id="line2d_63"/>
    <g id="text_11">
     <!-- AEP -->
     <g transform="translate(224.840625 101.559375)scale(0.12 -0.12)">
      <use xlink:href="#BitstreamVeraSans-Roman-41"/>
      <use x="68.408203125" xlink:href="#BitstreamVeraSans-Roman-45"/>
      <use x="131.591796875" xlink:href="#BitstreamVeraSans-Roman-50"/>
     </g>
    </g>
    <g id="line2d_64">
     <path d="
M194.841 114.973
L211.641 114.973" style="fill:none;stroke:#bf00bf;stroke-linecap:square;stroke-width:1.5;"/>
    </g>
    <g id="line2d_65"/>
    <g id="text_12">
     <!-- SEP -->
     <defs>
      <path d="
M53.5156 70.5156
L53.5156 60.8906
Q47.9062 63.5781 42.9219 64.8906
Q37.9375 66.2188 33.2969 66.2188
Q25.25 66.2188 20.875 63.0938
Q16.5 59.9688 16.5 54.2031
Q16.5 49.3594 19.4062 46.8906
Q22.3125 44.4375 30.4219 42.9219
L36.375 41.7031
Q47.4062 39.5938 52.6562 34.2969
Q57.9062 29 57.9062 20.125
Q57.9062 9.51562 50.7969 4.04688
Q43.7031 -1.42188 29.9844 -1.42188
Q24.8125 -1.42188 18.9688 -0.25
Q13.1406 0.921875 6.89062 3.21875
L6.89062 13.375
Q12.8906 10.0156 18.6562 8.29688
Q24.4219 6.59375 29.9844 6.59375
Q38.4219 6.59375 43.0156 9.90625
Q47.6094 13.2344 47.6094 19.3906
Q47.6094 24.75 44.3125 27.7812
Q41.0156 30.8125 33.5 32.3281
L27.4844 33.5
Q16.4531 35.6875 11.5156 40.375
Q6.59375 45.0625 6.59375 53.4219
Q6.59375 63.0938 13.4062 68.6562
Q20.2188 74.2188 32.1719 74.2188
Q37.3125 74.2188 42.625 73.2812
Q47.9531 72.3594 53.5156 70.5156" id="BitstreamVeraSans-Roman-53"/>
     </defs>
     <g transform="translate(224.840625 119.173125)scale(0.12 -0.12)">
      <use xlink:href="#BitstreamVeraSans-Roman-53"/>
      <use x="63.4765625" xlink:href="#BitstreamVeraSans-Roman-45"/>
      <use x="126.66015625" xlink:href="#BitstreamVeraSans-Roman-50"/>
     </g>
    </g>
   </g>
  </g>
 </g>
 <defs>
  <clipPath id="pa78772dfc1">
   <rect height="216.0" width="216.0" x="43.2" y="28.8"/>
  </clipPath>
 </defs>
</svg>
